<svg xmlns="http://www.w3.org/2000/svg" fill-rule="evenodd" viewBox="0 0 100 100">
    <path d="M65.3 12.16a1.5 1.5 0 0 0-1.45-.08L32.79 27H6.5A1.5 1.5 0 0 0 5 28.5v28.09a1.13 1.13 0 0 0 .05.31s0 .09 0 .14a1.46 1.46 0 0 0 .07.16v.08l20.92 35a1.5 1.5 0 0 0 1.29.73H41.5a1.5 1.5 0 0 0 1.29-2.27L23.23 58h9.64l31 14.85A1.5 1.5 0 0 0 66 71.5V13.43a1.5 1.5 0 0 0-.7-1.27ZM8 30h24v25H8Zm30.86 60H28.27L9.14 58h10.59ZM63 69.11 35 55.7V29.27l28-13.46ZM79.5 33.5a1.49 1.49 0 0 0 .88-.29l11-8a1.5 1.5 0 1 0-1.76-2.43l-11 8a1.5 1.5 0 0 0 .88 2.71Zm15 7.5h-15a1.5 1.5 0 0 0 0 3h15a1.5 1.5 0 0 0 0-3Zm-3.12 18.79-11-8a1.5 1.5 0 1 0-1.76 2.43l11 8a1.5 1.5 0 1 0 1.76-2.43Z"/>
</svg>
