<?xml version="1.0" encoding="UTF-8" standalone="no"?>
<!-- Generator: Adobe Illustrator 18.0.0, SVG Export Plug-In . SVG Version: 6.00 Build 0)  -->

<svg
   version="1.1"
   id="Слой_1"
   x="0px"
   y="0px"
   viewBox="23.4 0 934.38031 278.7988"
   enable-background="new 23.4 0 791 595.3"
   xml:space="preserve"
   sodipodi:docname="logo2.svg"
   inkscape:export-filename="logo.svg"
   inkscape:export-xdpi="96"
   inkscape:export-ydpi="96"
   width="934.38031"
   height="278.7988"
   inkscape:version="1.3 (0e150ed6c4, 2023-07-21)"
   xmlns:inkscape="http://www.inkscape.org/namespaces/inkscape"
   xmlns:sodipodi="http://sodipodi.sourceforge.net/DTD/sodipodi-0.dtd"
   xmlns="http://www.w3.org/2000/svg"
   xmlns:svg="http://www.w3.org/2000/svg"><defs
   id="defs39" /><sodipodi:namedview
   id="namedview39"
   pagecolor="#ffffff"
   bordercolor="#000000"
   borderopacity="0.25"
   inkscape:showpageshadow="2"
   inkscape:pageopacity="0.0"
   inkscape:pagecheckerboard="0"
   inkscape:deskcolor="#d1d1d1"
   inkscape:zoom="1.243605"
   inkscape:cx="467.19016"
   inkscape:cy="192.58527"
   inkscape:window-width="1920"
   inkscape:window-height="1017"
   inkscape:window-x="1912"
   inkscape:window-y="-8"
   inkscape:window-maximized="1"
   inkscape:current-layer="Слой_1" />&#10;<path
   fill="#663a2a"
   d="m 646.2148,165.99879 v -69.3 h 23.2 v 32.3 c 0,2.4 -0.5,5 -0.5,5 h 1 l 25.3,-37.3 h 19.7 v 69.3 h -20.7 v -32.5 c 0,-2.3 0.5,-4.6 0.5,-4.6 h -1 l -25.3,37.1 z"
   id="path1" />&#10;<path
   fill="#663a2a"
   d="m 597.9148,146.29879 c 8.5,0 14.1,-6.6 14.1,-14.8 0,-8.4 -5.6,-15 -14.1,-15 -8.2,0 -14.1,6.6 -14.1,15 0,8.2 5.9,14.8 14.1,14.8 m 0,-51.4 c 22.1,0 38.6,15.6 38.6,36.6 0,20.8 -16.5,36.4 -38.6,36.4 -21.9,0 -38.4,-15.6 -38.4,-36.4 0,-20.9 16.5,-36.6 38.4,-36.6"
   id="path2" />&#10;<path
   fill="#663a2a"
   d="m 137.2148,238.29879 c 14,0 23.5,-10.2 23.5,-23.6 0,-13.6 -9.5,-24 -23.5,-24 -13.7,0 -23.3,10.3 -23.3,24 0,13.4 9.5,23.6 23.3,23.6 m 0,-60.3 c 21.7,0 37.1,15.6 37.1,36.7 0,20.8 -15.4,36.3 -37.1,36.3 -21.5,0 -37,-15.5 -37,-36.3 0,-21 15.5,-36.7 37,-36.7"
   id="path3" />&#10;<path
   fill="#663a2a"
   d="m 449.7148,189.59879 c 12.5,0 19,8.1 20.1,18.7 h -40 c 2,-11 9.6,-18.7 19.9,-18.7 m 32.8,29.5 c 0.1,-1.4 0.2,-2.9 0.2,-4.3 0,-21.1 -10.9,-36.7 -33.7,-36.7 -19.5,0 -33.6,15.6 -33.6,36.7 0,1.5 0.1,2.9 0.2,4.3 v 0 c 1.6,18.1 13.2,32 37.4,32 11.7,0 21.6,-3.6 28.8,-9.4 l -5.4,-9.9 c -5.3,4 -13.4,7.7 -23,7.7 -15.1,0 -22.4,-8.2 -23.8,-20.3 h 0.1 z"
   id="path4" />&#10;<polygon
   fill="#663a2a"
   points="543.1,427.1 543.1,457.3 556.9,457.3 556.9,388 543.1,388 543.1,416.4 506,416.4 506,388 492.2,388 492.2,457.3 506,457.3 506,427.1 "
   id="polygon4"
   transform="translate(0.01479949,-208.10121)" />&#10;<polygon
   fill="#663a2a"
   points="629.6,388 566.5,388 566.5,400.3 591.1,400.3 591.1,457.3 604.9,457.3 604.9,400.3 629.6,400.3 "
   id="polygon5"
   transform="translate(0.01479949,-208.10121)" />&#10;<rect
   x="703.71478"
   y="179.89879"
   fill="#663a2a"
   width="13.8"
   height="69.300003"
   id="rect5" />&#10;<path
   fill="#663a2a"
   d="m 214.0148,212.79879 v -0.6 c 0,0 1.3,-0.4 2.4,-1.7 1.2,-1.3 26.4,-30.5 26.4,-30.5 h -15.5 l -24.3,28.4 h -5.5 v -28.5 h -13.8 v 69.3 h 13.8 v -30.2 h 6.3 l 26.3,30.2 h 17.2 c 0,0 -29.5,-33.2 -30.7,-34.6 -1.2,-1.4 -2.6,-1.8 -2.6,-1.8"
   id="path5" />&#10;<path
   fill="#663a2a"
   d="m 661.1148,238.79879 c -4.3,0 -8.2,-0.3 -8.2,-0.3 v -25 c 0,0 3,-0.8 8.3,-0.8 11.5,0 16.6,4.5 16.6,12.8 0.1,8.1 -4.5,13.3 -16.7,13.3 m 2.5,-37.7 c -6.4,0 -10.7,0.8 -10.7,0.8 v -22 h -13.8 v 69.3 c 0,0 11.3,1.1 23.1,1.1 21.7,0 28.8,-13.2 28.8,-25.4 0,-12.3 -6.4,-23.8 -27.4,-23.8"
   id="path6" />&#10;<path
   fill="#663a2a"
   d="m 57.8148,238.29879 c -13.9,0 -21.3,-10.2 -21,-23.6 0.3,-13.6 8.2,-24 22.1,-24 7.7,0 18,7 18,19.7 v 19.1 c -4.3,5.5 -11,8.8 -19.1,8.8 m 19.7,-58.4 -0.4,8.7 h -0.9 c -4.4,-6.5 -13.2,-10.6 -20.1,-10.6 -20.2,0 -32.2,15.6 -32.7,36.7 -0.5,20.8 11.7,36.3 31.9,36.3 9.3,0 15,-2.6 20.7,-9.3 h 0.9 v 6.2 c 0,13.4 -9.3,18.7 -19.8,18.7 -9.7,0 -17.2,-3.6 -21.8,-6.4 l -4.5,11.4 c 4.4,2.3 12.6,7.2 26.3,7.2 19.4,0 33.6,-11.5 33.6,-33.7 v -65.2 z"
   id="path7" />&#10;<path
   fill="#663a2a"
   d="m 302.0148,179.89879 v 50.2 c -4.1,5.1 -10.3,8.2 -18.1,8.2 -12.7,0 -18.5,-10.2 -18.1,-23.6 v -34.8 h -13.4 v 34.8 c -0.5,20.8 7.8,36.3 28,36.3 9.2,0 15.5,-2.7 20.7,-9.3 h 0.9 v 6.2 c 0,13.4 -9.3,18.7 -19.8,18.7 -9.7,0 -17.2,-3.6 -21.8,-6.4 l -4.5,11.4 c 4.4,2.3 12.6,7.2 26.3,7.2 19.4,0 33.6,-11.5 33.6,-33.7 v -65.2 z"
   id="path8" />&#10;<path
   fill="#663a2a"
   d="m 392.8148,179.89879 c 0,0 -22.8,32.1 -23.5,33 -0.7,0.9 -0.9,1.9 -0.9,1.9 h -0.5 c 0,0 -0.3,-0.9 -1,-1.9 -0.7,-1 -25.2,-33 -25.2,-33 h -13 v 69.3 h 13.8 v -44.2 c 0,-3.1 -0.6,-4.8 -0.6,-4.8 h 0.6 l 25.4,34.1 h 0.6 l 23.5,-34.1 h 0.7 c 0,0 -0.7,1.8 -0.7,4.8 v 44.2 h 13.8 v -69.3 z"
   id="path9" />&#10;<path
   fill="#663a2a"
   d="m 531.7148,96.79879 c 0,0 -19.4,25.2 -20.2,26.2 -0.9,1.2 -1,1.8 -1,1.8 h -1 c 0,0 -0.2,-0.7 -1.1,-1.8 -1.4,-1.7 -21.5,-26.2 -21.5,-26.2 h -18.3 v 69.3 h 22.4 v -29.2 c 0,-3.1 -0.5,-5 -0.5,-5 h 1 l 18,20.7 h 1 l 16.7,-20.7 h 1 c 0,0 -0.5,1.9 -0.5,5 v 29.1 h 22.3 v -69.3 h -18.3 z"
   id="path10" />&#10;<path
   fill="#c79b65"
   d="M 819.18033,167.3 V 97 h -55.4 v 70.3 c 0,24.7 13.2,47.6 34.7,60 l 62.3,36 v -64 l -34.6,-20 c -4.4,-2.5 -7,-7 -7,-12"
   id="path11" />&#10;<path
   fill="#e84b37"
   d="m 860.68033,235.6 62.4,-36 c 21.4,-12.4 34.7,-35.3 34.7,-60 V 0 h -97 v 55.4 h 41.5 v 84.1 c 0,4.9 -2.6,9.5 -6.9,12 l -34.6,20 v 64.1 z"
   id="path12" />&#10;<polygon
   fill="#663a2a"
   points="620.5,97 717.4,97 717.4,0 "
   id="polygon12"
   transform="translate(143.28033)" />&#10;&#10;&#10;&#10;&#10;&#10;&#10;&#10;&#10;&#10;&#10;&#10;&#10;&#10;&#10;&#10;&#10;&#10;&#10;&#10;&#10;&#10;&#10;&#10;&#10;&#10;&#10;&#10;&#10;&#10;&#10;&#10;&#10;&#10;&#10;&#10;</svg>
