<svg xmlns="http://www.w3.org/2000/svg" fill-rule="evenodd" viewBox="0 0 100 100">
    <path d="M87.5 59H80V27.5a1.5 1.5 0 0 0-1.5-1.5H67V11.5a1.5 1.5 0 0 0-1.5-1.5h-31a1.5 1.5 0 0 0-1.5 1.5V26H21.5a1.5 1.5 0 0 0-1.5 1.5V59h-7.5a1.5 1.5 0 0 0-1.5 1.5v19a1.5 1.5 0 0 0 1.5 1.5h19a1.5 1.5 0 0 0 1.5-1.5v-19a1.5 1.5 0 0 0-1.5-1.5H23V29h10v13.5a1.5 1.5 0 0 0 1.5 1.5H49v15h-8.5a1.5 1.5 0 0 0-1.5 1.5v19a1.5 1.5 0 0 0 1.5 1.5h19a1.5 1.5 0 0 0 1.5-1.5v-19a1.5 1.5 0 0 0-1.5-1.5H52V44h13.5a1.5 1.5 0 0 0 1.5-1.5V29h10v30h-8.5a1.5 1.5 0 0 0-1.5 1.5v19a1.5 1.5 0 0 0 1.5 1.5h19a1.5 1.5 0 0 0 1.5-1.5v-19a1.5 1.5 0 0 0-1.5-1.5ZM30 78H14V62h16Zm28 0H42V62h16Zm6-37H36V13h28Zm22 37H70V62h16Z"/>
</svg>
