<?xml version="1.0" encoding="UTF-8" standalone="no"?> <!-- Created with Inkscape (http://www.inkscape.org/) --> <svg xmlns:inkscape="http://www.inkscape.org/namespaces/inkscape" xmlns:sodipodi="http://sodipodi.sourceforge.net/DTD/sodipodi-0.dtd" xmlns="http://www.w3.org/2000/svg" xmlns:svg="http://www.w3.org/2000/svg" width="10.80298mm" height="14.267487mm" viewBox="0 0 10.80298 14.267487" id="svg13476" inkscape:version="1.2.2 (b0a8486541, 2022-12-01)" sodipodi:docname="logo.svg"> <defs id="defs13473"></defs> <g inkscape:label="Слой 1" inkscape:groupmode="layer" id="layer1" transform="translate(-281.4768,-110.56733)"> <g id="g43774" transform="matrix(0.26458333,0,0,0.26458333,276.74066,101.17991)"> <rect style="opacity:1;fill:#59bfc7;fill-opacity:1;stroke:none;stroke-width:1.51181;stroke-dasharray:9.07087, 9.07087;stop-color:#000000" id="rect42513" width="15.299612" height="26.567875" x="17.900393" y="35.48"></rect> <rect style="opacity:1;fill:#59bfc7;fill-opacity:1;stroke:none;stroke-width:1.51181;stroke-dasharray:9.07087, 9.07087;stop-color:#000000" id="rect41679" width="15.330078" height="18.065992" x="43.400391" y="35.48"></rect> <g id="g42940" transform="matrix(0.9,0,0,0.9,5.1135739,4.2830543)"> <g id="g12830" style="fill:#3c3c3b;fill-opacity:1"> <rect style="opacity:1;fill:#3c3c3b;fill-opacity:1;stroke:none;stroke-width:1.51181;stroke-dasharray:9.07087, 9.07087;stop-color:#000000" id="rect12563" width="0.61199951" height="0.61199951" x="54.416" y="46.495998" rx="0.33000004" ry="0.33000004"></rect> <path id="rect12565" style="opacity:1;fill:#3c3c3b;fill-opacity:1;stroke:none;stroke-width:1.51181;stroke-dasharray:9.07087, 9.07087;stop-color:#000000" d="m 53.953125,45.271484 c -0.40442,0 -0.730469,0.326049 -0.730469,0.730469 v 1.599609 c 0,0.40442 0.326049,0.730469 0.730469,0.730469 h 1.568359 c 0.40442,0 0.730469,-0.326049 0.730469,-0.730469 v -1.599609 c 0,-0.40442 -0.326049,-0.730469 -0.730469,-0.730469 z m 0.28125,0.613282 h 0.976563 c 0.23822,0 0.429687,0.191467 0.429687,0.429687 v 0.974609 c 0,0.238221 -0.191467,0.431641 -0.429687,0.431641 h -0.976563 c -0.23822,0 -0.429687,-0.19342 -0.429687,-0.431641 v -0.974609 c 0,-0.23822 0.191467,-0.429687 0.429687,-0.429687 z"></path> </g> <g id="g39046" transform="translate(0.05994461)" style="fill:#3c3c3b;fill-opacity:1"> <rect style="fill:#3c3c3b;fill-opacity:1;stroke:none;stroke-width:1.29081;stroke-dasharray:7.74484, 7.74484;stop-color:#000000" id="rect11240" width="0.44614762" height="1.223999" x="48.326599" y="35.48"></rect> <rect style="fill:#3c3c3b;fill-opacity:1;stroke:none;stroke-width:1.29081;stroke-dasharray:7.74484, 7.74484;stop-color:#000000" id="rect11344" width="0.44614762" height="1.223999" x="53.222599" y="35.48"></rect> <rect style="fill:#3c3c3b;fill-opacity:1;stroke:none;stroke-width:1.29081;stroke-dasharray:7.74484, 7.74484;stop-color:#000000" id="rect11346" width="0.44614762" height="2.4480019" x="48.938599" y="35.48"></rect> <rect style="fill:#3c3c3b;fill-opacity:1;stroke:none;stroke-width:1.29081;stroke-dasharray:7.74484, 7.74484;stop-color:#000000" id="rect11348" width="0.44614762" height="2.4480019" x="49.550598" y="36.091999"></rect> <rect style="fill:#3c3c3b;fill-opacity:1;stroke:none;stroke-width:1.29081;stroke-dasharray:7.74484, 7.74484;stop-color:#000000" id="rect11350" width="0.44614762" height="1.2240028" x="50.162598" y="36.703999"></rect> <rect style="fill:#3c3c3b;fill-opacity:1;stroke:none;stroke-width:1.29081;stroke-dasharray:7.74484, 7.74484;stop-color:#000000" id="rect11352" width="0.44614762" height="1.8360023" x="51.386597" y="36.703999"></rect> <rect style="fill:#3c3c3b;fill-opacity:1;stroke:none;stroke-width:1.29081;stroke-dasharray:7.74484, 7.74484;stop-color:#000000" id="rect11354" width="0.44614762" height="2.447998" x="50.774597" y="37.928001"></rect> <rect style="fill:#3c3c3b;fill-opacity:1;stroke:none;stroke-width:1.29081;stroke-dasharray:7.74484, 7.74484;stop-color:#000000" id="rect11356" width="0.44614762" height="3.0599976" x="51.998596" y="37.928001"></rect> <rect style="fill:#3c3c3b;fill-opacity:1;stroke:none;stroke-width:1.29081;stroke-dasharray:7.74484, 7.74484;stop-color:#000000" id="rect11358" width="0.44614762" height="3.0599976" x="49.550598" y="39.152"></rect> <rect style="fill:#3c3c3b;fill-opacity:1;stroke:none;stroke-width:1.29081;stroke-dasharray:7.74484, 7.74484;stop-color:#000000" id="rect11360" width="0.44614762" height="1.223999" x="48.326599" y="39.152"></rect> <rect style="fill:#3c3c3b;fill-opacity:1;stroke:none;stroke-width:1.29081;stroke-dasharray:7.74484, 7.74484;stop-color:#000000" id="rect11362" width="0.44614762" height="1.223999" x="48.938599" y="39.764"></rect> <rect style="fill:#3c3c3b;fill-opacity:1;stroke:none;stroke-width:1.29081;stroke-dasharray:7.74484, 7.74484;stop-color:#000000" id="rect11364" width="0.44614762" height="1.8359985" x="45.266598" y="40.375999"></rect> <rect style="fill:#3c3c3b;fill-opacity:1;stroke:none;stroke-width:1.29081;stroke-dasharray:7.74484, 7.74484;stop-color:#000000" id="rect11366" width="0.44614762" height="1.223999" x="44.654598" y="40.375999"></rect> <rect style="fill:#3c3c3b;fill-opacity:1;stroke:none;stroke-width:1.29081;stroke-dasharray:7.74484, 7.74484;stop-color:#000000" id="rect11368" width="0.44614762" height="1.223999" x="43.430599" y="40.375999"></rect> <rect style="fill:#3c3c3b;fill-opacity:1;stroke:none;stroke-width:1.29081;stroke-dasharray:7.74484, 7.74484;stop-color:#000000" id="rect11370" width="0.44614762" height="1.223999" x="46.490597" y="40.375999"></rect> <rect style="fill:#3c3c3b;fill-opacity:1;stroke:none;stroke-width:1.29081;stroke-dasharray:7.74484, 7.74484;stop-color:#000000" id="rect11372" width="0.44614762" height="3.0599976" x="46.490597" y="42.212002"></rect> <rect style="fill:#3c3c3b;fill-opacity:1;stroke:none;stroke-width:1.29081;stroke-dasharray:7.74484, 7.74484;stop-color:#000000" id="rect11374" width="0.44614762" height="1.8359985" x="45.878597" y="44.048"></rect> <rect style="fill:#3c3c3b;fill-opacity:1;stroke:none;stroke-width:1.29081;stroke-dasharray:7.74484, 7.74484;stop-color:#000000" id="rect11376" width="0.44614762" height="1.223999" x="45.266598" y="44.048"></rect> <rect style="fill:#3c3c3b;fill-opacity:1;stroke:none;stroke-width:1.29081;stroke-dasharray:7.74484, 7.74484;stop-color:#000000" id="rect11378" width="0.44614762" height="1.223999" x="44.042599" y="44.66"></rect> <rect style="fill:#3c3c3b;fill-opacity:1;stroke:none;stroke-width:1.29081;stroke-dasharray:7.74484, 7.74484;stop-color:#000000" id="rect11380" width="0.44614762" height="1.223999" x="43.430599" y="43.436001"></rect> <rect style="fill:#3c3c3b;fill-opacity:1;stroke:none;stroke-width:1.29081;stroke-dasharray:7.74484, 7.74484;stop-color:#000000" id="rect11382" width="0.44614762" height="1.223999" x="44.042599" y="42.824001"></rect> <rect style="fill:#3c3c3b;fill-opacity:1;stroke:none;stroke-width:1.29081;stroke-dasharray:7.74484, 7.74484;stop-color:#000000" id="rect11588" width="0.44614762" height="3.0599976" x="47.714596" y="42.824001"></rect> <rect style="fill:#3c3c3b;fill-opacity:1;stroke:none;stroke-width:1.29081;stroke-dasharray:7.74484, 7.74484;stop-color:#000000" id="rect11590" width="0.44614762" height="1.8359985" x="48.938599" y="43.436001"></rect> <rect style="fill:#3c3c3b;fill-opacity:1;stroke:none;stroke-width:1.29081;stroke-dasharray:7.74484, 7.74484;stop-color:#000000" id="rect11592" width="0.44614762" height="1.223999" x="48.326599" y="42.212002"></rect> <rect style="fill:#3c3c3b;fill-opacity:1;stroke:none;stroke-width:1.29081;stroke-dasharray:7.74484, 7.74484;stop-color:#000000" id="rect11594" width="0.44614762" height="1.223999" x="49.550598" y="42.824001"></rect> <rect style="fill:#3c3c3b;fill-opacity:1;stroke:none;stroke-width:1.29081;stroke-dasharray:7.74484, 7.74484;stop-color:#000000" id="rect11596" width="0.44614762" height="3.0600014" x="51.386597" y="40.987999"></rect> <rect style="fill:#3c3c3b;fill-opacity:1;stroke:none;stroke-width:1.29081;stroke-dasharray:7.74484, 7.74484;stop-color:#000000" id="rect11598" width="0.44614762" height="3.0599976" x="51.998596" y="42.212002"></rect> <rect style="fill:#3c3c3b;fill-opacity:1;stroke:none;stroke-width:1.29081;stroke-dasharray:7.74484, 7.74484;stop-color:#000000" id="rect11600" width="0.44614762" height="3.6720009" x="50.774597" y="45.883999"></rect> <rect style="fill:#3c3c3b;fill-opacity:1;stroke:none;stroke-width:1.29081;stroke-dasharray:7.74484, 7.74484;stop-color:#000000" id="rect11602" width="0.44614762" height="1.8360023" x="48.326599" y="45.883999"></rect> <rect style="fill:#3c3c3b;fill-opacity:1;stroke:none;stroke-width:1.29081;stroke-dasharray:7.74484, 7.74484;stop-color:#000000" id="rect11604" width="0.44614762" height="1.223999" x="48.938599" y="47.720001"></rect> <rect style="fill:#3c3c3b;fill-opacity:1;stroke:none;stroke-width:1.29081;stroke-dasharray:7.74484, 7.74484;stop-color:#000000" id="rect11606" width="0.44614762" height="1.223999" x="48.326599" y="48.332001"></rect> <rect style="fill:#3c3c3b;fill-opacity:1;stroke:none;stroke-width:1.29081;stroke-dasharray:7.74484, 7.74484;stop-color:#000000" id="rect11608" width="0.44614762" height="1.8359985" x="49.550598" y="48.944"></rect> <rect style="fill:#3c3c3b;fill-opacity:1;stroke:none;stroke-width:1.29081;stroke-dasharray:7.74484, 7.74484;stop-color:#000000" id="rect11610" width="0.44614762" height="1.8359985" x="51.386597" y="47.720001"></rect> <rect style="fill:#3c3c3b;fill-opacity:1;stroke:none;stroke-width:1.29081;stroke-dasharray:7.74484, 7.74484;stop-color:#000000" id="rect11612" width="0.44614762" height="1.8359985" x="53.222599" y="43.436001"></rect> <rect style="fill:#3c3c3b;fill-opacity:1;stroke:none;stroke-width:1.29081;stroke-dasharray:7.74484, 7.74484;stop-color:#000000" id="rect11614" width="0.44614762" height="1.223999" x="53.834599" y="44.048"></rect> <rect style="fill:#3c3c3b;fill-opacity:1;stroke:none;stroke-width:1.29081;stroke-dasharray:7.74484, 7.74484;stop-color:#000000" id="rect11616" width="0.44614762" height="2.447998" x="55.670597" y="42.824001"></rect> <rect style="fill:#3c3c3b;fill-opacity:1;stroke:none;stroke-width:1.29081;stroke-dasharray:7.74484, 7.74484;stop-color:#000000" id="rect11618" width="0.44614762" height="1.223999" x="55.058598" y="42.824001"></rect> <rect style="fill:#3c3c3b;fill-opacity:1;stroke:none;stroke-width:1.29081;stroke-dasharray:7.74484, 7.74484;stop-color:#000000" id="rect11620" width="0.44614762" height="1.8359985" x="54.446598" y="42.212002"></rect> <rect style="fill:#3c3c3b;fill-opacity:1;stroke:none;stroke-width:1.29081;stroke-dasharray:7.74484, 7.74484;stop-color:#000000" id="rect11622" width="0.44614762" height="1.223999" x="53.834599" y="42.212002"></rect> <rect style="fill:#3c3c3b;fill-opacity:1;stroke:none;stroke-width:1.29081;stroke-dasharray:7.74484, 7.74484;stop-color:#000000" id="rect11624" width="0.44614762" height="2.4480019" x="53.222599" y="40.375999"></rect> <rect style="fill:#3c3c3b;fill-opacity:1;stroke:none;stroke-width:1.29081;stroke-dasharray:7.74484, 7.74484;stop-color:#000000" id="rect11626" width="0.44614762" height="1.223999" x="55.058598" y="40.987999"></rect> <rect style="fill:#3c3c3b;fill-opacity:1;stroke:none;stroke-width:1.29081;stroke-dasharray:7.74484, 7.74484;stop-color:#000000" id="rect11628" width="0.44615045" height="1.223999" x="56.894596" y="42.212002"></rect> <rect style="fill:#3c3c3b;fill-opacity:1;stroke:none;stroke-width:1.29081;stroke-dasharray:7.74484, 7.74484;stop-color:#000000" id="rect11630" width="0.44614762" height="1.223999" x="57.506599" y="40.375999"></rect> <rect style="fill:#3c3c3b;fill-opacity:1;stroke:none;stroke-width:1.29081;stroke-dasharray:7.74484, 7.74484;stop-color:#000000" id="rect11632" width="0.44614762" height="1.223999" x="58.118599" y="42.824001"></rect> <rect style="fill:#3c3c3b;fill-opacity:1;stroke:none;stroke-width:1.29081;stroke-dasharray:7.74484, 7.74484;stop-color:#000000" id="rect11634" width="0.44614762" height="1.223999" x="50.774597" y="44.048"></rect> <rect style="fill:#3c3c3b;fill-opacity:1;stroke:none;stroke-width:1.29081;stroke-dasharray:7.74484, 7.74484;stop-color:#000000" id="rect33282" width="0.44614762" height="1.223999" x="54.461021" y="48.332401"></rect> <rect style="fill:#3c3c3b;fill-opacity:1;stroke:none;stroke-width:1.29081;stroke-dasharray:7.74484, 7.74484;stop-color:#000000" id="rect33284" width="0.44614762" height="1.223999" x="52.626625" y="48.944401"></rect> <rect style="fill:#3c3c3b;fill-opacity:1;stroke:none;stroke-width:1.29081;stroke-dasharray:7.74484, 7.74484;stop-color:#000000" id="rect33286" width="0.44614762" height="2.4480019" x="43.430599" y="51.391998"></rect> <rect style="fill:#3c3c3b;fill-opacity:1;stroke:none;stroke-width:1.29081;stroke-dasharray:7.74484, 7.74484;stop-color:#000000" id="rect33288" width="0.44614762" height="1.223999" x="45.878597" y="51.391998"></rect> </g> <path id="path34927" style="fill:#3c3c3b;fill-opacity:1;stroke:none;stroke-width:1.51067;stroke-dasharray:9.06401, 9.06401;stop-color:#000000" d="m 57.78125,45.240234 a 0.95,0.95 0 0 0 -0.949219,0.949219 0.95,0.95 0 0 0 0.949219,0.949219 0.95,0.95 0 0 0 0.949219,-0.949219 0.95,0.95 0 0 0 -0.949219,-0.949219 z m 0,0.642578 c 0.169524,0 0.306641,0.137117 0.306641,0.306641 0,0.169524 -0.137117,0.306641 -0.306641,0.306641 -0.169524,0 -0.306641,-0.137117 -0.306641,-0.306641 0,-0.169524 0.137117,-0.306641 0.306641,-0.306641 z"></path> <g id="g42365" style="fill:#3c3c3b;fill-opacity:1"> <rect style="fill:#3c3c3b;fill-opacity:1;stroke:none;stroke-width:1.51181;stroke-dasharray:9.07087, 9.07087;stop-color:#000000" id="rect12355" width="0.61199951" height="0.61199951" x="43.400002" y="42.212002" rx="0.33000004" ry="0.33000004"></rect> <rect style="fill:#3c3c3b;fill-opacity:1;stroke:none;stroke-width:1.51181;stroke-dasharray:9.07087, 9.07087;stop-color:#000000" id="rect12357" width="0.61199951" height="0.61199951" x="44.624001" y="42.212002" rx="0.33000004" ry="0.33000004"></rect> <rect style="fill:#3c3c3b;fill-opacity:1;stroke:none;stroke-width:1.51181;stroke-dasharray:9.07087, 9.07087;stop-color:#000000" id="rect12359" width="0.61199951" height="0.61199951" x="44.012001" y="40.987999" rx="0.33000004" ry="0.33000004"></rect> <rect style="fill:#3c3c3b;fill-opacity:1;stroke:none;stroke-width:1.51181;stroke-dasharray:9.07087, 9.07087;stop-color:#000000" id="rect12361" width="0.61199951" height="0.61199951" x="43.400002" y="45.271999" rx="0.33000004" ry="0.33000004"></rect> <rect style="fill:#3c3c3b;fill-opacity:1;stroke:none;stroke-width:1.51181;stroke-dasharray:9.07087, 9.07087;stop-color:#000000" id="rect12363" width="0.61199951" height="0.61199951" x="44.624001" y="44.66" rx="0.33000004" ry="0.33000004"></rect> <rect style="fill:#3c3c3b;fill-opacity:1;stroke:none;stroke-width:1.51181;stroke-dasharray:9.07087, 9.07087;stop-color:#000000" id="rect12365" width="0.61199951" height="0.61199951" x="45.848" y="42.824001" rx="0.33000004" ry="0.33000004"></rect> <rect style="fill:#3c3c3b;fill-opacity:1;stroke:none;stroke-width:1.51181;stroke-dasharray:9.07087, 9.07087;stop-color:#000000" id="rect12367" width="0.61199951" height="0.61199951" x="47.071999" y="41.599998" rx="0.33000004" ry="0.33000004"></rect> <rect style="fill:#3c3c3b;fill-opacity:1;stroke:none;stroke-width:1.51181;stroke-dasharray:9.07087, 9.07087;stop-color:#000000" id="rect12369" width="0.61199951" height="0.61199951" x="47.683998" y="40.375999" rx="0.33000004" ry="0.33000004"></rect> <rect style="fill:#3c3c3b;fill-opacity:1;stroke:none;stroke-width:1.51181;stroke-dasharray:9.07087, 9.07087;stop-color:#000000" id="rect12371" width="0.61199951" height="0.61199951" x="47.071999" y="40.375999" rx="0.33000004" ry="0.33000004"></rect> <rect style="fill:#3c3c3b;fill-opacity:1;stroke:none;stroke-width:1.51181;stroke-dasharray:9.07087, 9.07087;stop-color:#000000" id="rect12373" width="0.61199951" height="0.61199951" x="47.071999" y="42.824001" rx="0.33000004" ry="0.33000004"></rect> <rect style="fill:#3c3c3b;fill-opacity:1;stroke:none;stroke-width:1.51181;stroke-dasharray:9.07087, 9.07087;stop-color:#000000" id="rect12375" width="0.61199951" height="0.61199951" x="47.071999" y="44.048" rx="0.33000004" ry="0.33000004"></rect> <rect style="fill:#3c3c3b;fill-opacity:1;stroke:none;stroke-width:1.51181;stroke-dasharray:9.07087, 9.07087;stop-color:#000000" id="rect12377" width="0.61199951" height="0.61199951" x="47.071999" y="45.271999" rx="0.33000004" ry="0.33000004"></rect> <rect style="fill:#3c3c3b;fill-opacity:1;stroke:none;stroke-width:1.51181;stroke-dasharray:9.07087, 9.07087;stop-color:#000000" id="rect12379" width="0.61199951" height="0.61199951" x="48.296001" y="44.66" rx="0.33000004" ry="0.33000004"></rect> <rect style="fill:#3c3c3b;fill-opacity:1;stroke:none;stroke-width:1.51181;stroke-dasharray:9.07087, 9.07087;stop-color:#000000" id="rect12381" width="0.61199951" height="0.61199951" x="48.908001" y="41.599998" rx="0.33000004" ry="0.33000004"></rect> <rect style="fill:#3c3c3b;fill-opacity:1;stroke:none;stroke-width:1.51181;stroke-dasharray:9.07087, 9.07087;stop-color:#000000" id="rect12383" width="0.61199951" height="0.61199951" x="50.132" y="42.212002" rx="0.33000004" ry="0.33000004"></rect> <rect style="fill:#3c3c3b;fill-opacity:1;stroke:none;stroke-width:1.51181;stroke-dasharray:9.07087, 9.07087;stop-color:#000000" id="rect12385" width="0.61199951" height="0.61199951" x="50.743999" y="41.599998" rx="0.33000004" ry="0.33000004"></rect> <rect style="fill:#3c3c3b;fill-opacity:1;stroke:none;stroke-width:1.51181;stroke-dasharray:9.07087, 9.07087;stop-color:#000000" id="rect12387" width="0.61199951" height="0.61199951" x="50.132" y="43.436001" rx="0.33000004" ry="0.33000004"></rect> <rect style="fill:#3c3c3b;fill-opacity:1;stroke:none;stroke-width:1.51181;stroke-dasharray:9.07087, 9.07087;stop-color:#000000" id="rect12389" width="0.61199951" height="0.61199951" x="50.132" y="45.271999" rx="0.33000004" ry="0.33000004"></rect> <rect style="fill:#3c3c3b;fill-opacity:1;stroke:none;stroke-width:1.51181;stroke-dasharray:9.07087, 9.07087;stop-color:#000000" id="rect12391" width="0.61199951" height="0.61199951" x="49.52" y="45.883999" rx="0.33000004" ry="0.33000004"></rect> <rect style="fill:#3c3c3b;fill-opacity:1;stroke:none;stroke-width:1.51181;stroke-dasharray:9.07087, 9.07087;stop-color:#000000" id="rect12393" width="0.61199951" height="0.61199951" x="48.908001" y="45.883999" rx="0.33000004" ry="0.33000004"></rect> <rect style="fill:#3c3c3b;fill-opacity:1;stroke:none;stroke-width:1.51181;stroke-dasharray:9.07087, 9.07087;stop-color:#000000" id="rect12395" width="0.61199951" height="0.61199951" x="50.132" y="46.495998" rx="0.33000004" ry="0.33000004"></rect> <rect style="fill:#3c3c3b;fill-opacity:1;stroke:none;stroke-width:1.51181;stroke-dasharray:9.07087, 9.07087;stop-color:#000000" id="rect12397" width="0.61199951" height="0.61199951" x="51.967999" y="46.495998" rx="0.33000004" ry="0.33000004"></rect> <rect style="fill:#3c3c3b;fill-opacity:1;stroke:none;stroke-width:1.51181;stroke-dasharray:9.07087, 9.07087;stop-color:#000000" id="rect12399" width="0.61199951" height="0.61199951" x="51.355999" y="46.495998" rx="0.33000004" ry="0.33000004"></rect> <rect style="fill:#3c3c3b;fill-opacity:1;stroke:none;stroke-width:1.51181;stroke-dasharray:9.07087, 9.07087;stop-color:#000000" id="rect12401" width="0.61199951" height="0.61199951" x="51.355999" y="45.271999" rx="0.33000004" ry="0.33000004"></rect> <rect style="fill:#3c3c3b;fill-opacity:1;stroke:none;stroke-width:1.51181;stroke-dasharray:9.07087, 9.07087;stop-color:#000000" id="rect12403" width="0.61199951" height="0.61199951" x="52.580002" y="45.271999" rx="0.33000004" ry="0.33000004"></rect> <rect style="fill:#3c3c3b;fill-opacity:1;stroke:none;stroke-width:1.51181;stroke-dasharray:9.07087, 9.07087;stop-color:#000000" id="rect12405" width="0.61199951" height="0.61199951" x="52.580002" y="43.436001" rx="0.33000004" ry="0.33000004"></rect> <rect style="fill:#3c3c3b;fill-opacity:1;stroke:none;stroke-width:1.51181;stroke-dasharray:9.07087, 9.07087;stop-color:#000000" id="rect12407" width="0.61199951" height="0.61199951" x="48.908001" y="38.540001" rx="0.33000004" ry="0.33000004"></rect> <rect style="fill:#3c3c3b;fill-opacity:1;stroke:none;stroke-width:1.51181;stroke-dasharray:9.07087, 9.07087;stop-color:#000000" id="rect12409" width="0.61199951" height="0.61199951" x="48.296001" y="37.316002" rx="0.33000004" ry="0.33000004"></rect> <rect style="fill:#3c3c3b;fill-opacity:1;stroke:none;stroke-width:1.51181;stroke-dasharray:9.07087, 9.07087;stop-color:#000000" id="rect12411" width="0.61199951" height="0.61199951" x="52.580002" y="39.764" rx="0.33000004" ry="0.33000004"></rect> <rect style="fill:#3c3c3b;fill-opacity:1;stroke:none;stroke-width:1.51181;stroke-dasharray:9.07087, 9.07087;stop-color:#000000" id="rect12413" width="0.61199951" height="0.61199951" x="53.192001" y="39.152" rx="0.33000004" ry="0.33000004"></rect> <rect style="fill:#3c3c3b;fill-opacity:1;stroke:none;stroke-width:1.51181;stroke-dasharray:9.07087, 9.07087;stop-color:#000000" id="rect12415" width="0.61199951" height="0.61199951" x="53.192001" y="37.928001" rx="0.33000004" ry="0.33000004"></rect> <rect style="fill:#3c3c3b;fill-opacity:1;stroke:none;stroke-width:1.51181;stroke-dasharray:9.07087, 9.07087;stop-color:#000000" id="rect12417" width="0.61199951" height="0.61199951" x="52.580002" y="37.928001" rx="0.33000004" ry="0.33000004"></rect> <rect style="fill:#3c3c3b;fill-opacity:1;stroke:none;stroke-width:1.51181;stroke-dasharray:9.07087, 9.07087;stop-color:#000000" id="rect12419" width="0.61199951" height="0.61199951" x="52.580002" y="36.703999" rx="0.33000004" ry="0.33000004"></rect> <rect style="fill:#3c3c3b;fill-opacity:1;stroke:none;stroke-width:1.51181;stroke-dasharray:9.07087, 9.07087;stop-color:#000000" id="rect12421" width="0.61200333" height="0.61199951" x="51.967999" y="36.703999" rx="0.33000004" ry="0.33000004"></rect> <rect style="fill:#3c3c3b;fill-opacity:1;stroke:none;stroke-width:1.51181;stroke-dasharray:9.07087, 9.07087;stop-color:#000000" id="rect12423" width="0.61199951" height="0.61199951" x="51.355999" y="35.48" rx="0.33000004" ry="0.33000004"></rect> <rect style="fill:#3c3c3b;fill-opacity:1;stroke:none;stroke-width:1.51181;stroke-dasharray:9.07087, 9.07087;stop-color:#000000" id="rect12425" width="0.61199951" height="0.61199951" x="50.132" y="47.720001" rx="0.33000004" ry="0.33000004"></rect> <rect style="fill:#3c3c3b;fill-opacity:1;stroke:none;stroke-width:1.51181;stroke-dasharray:9.07087, 9.07087;stop-color:#000000" id="rect12427" width="0.61199951" height="0.61199951" x="49.52" y="47.720001" rx="0.33000004" ry="0.33000004"></rect> <rect style="fill:#3c3c3b;fill-opacity:1;stroke:none;stroke-width:1.51181;stroke-dasharray:9.07087, 9.07087;stop-color:#000000" id="rect12429" width="0.61199951" height="0.61199951" x="50.132" y="48.944" rx="0.33000004" ry="0.33000004"></rect> <rect style="fill:#3c3c3b;fill-opacity:1;stroke:none;stroke-width:1.51181;stroke-dasharray:9.07087, 9.07087;stop-color:#000000" id="rect12551" width="0.61199951" height="0.61199951" x="55.028" y="44.66" rx="0.33000004" ry="0.33000004"></rect> <rect style="fill:#3c3c3b;fill-opacity:1;stroke:none;stroke-width:1.51181;stroke-dasharray:9.07087, 9.07087;stop-color:#000000" id="rect12553" width="0.61199951" height="0.61199951" x="57.476002" y="44.048" rx="0.33000004" ry="0.33000004"></rect> <rect style="fill:#3c3c3b;fill-opacity:1;stroke:none;stroke-width:1.51181;stroke-dasharray:9.07087, 9.07087;stop-color:#000000" id="rect12555" width="0.61199951" height="0.61199951" x="56.863998" y="44.048" rx="0.33000004" ry="0.33000004"></rect> <rect style="fill:#3c3c3b;fill-opacity:1;stroke:none;stroke-width:1.51181;stroke-dasharray:9.07087, 9.07087;stop-color:#000000" id="rect12557" width="0.61199951" height="0.61199951" x="58.088001" y="44.66" rx="0.33000004" ry="0.33000004"></rect> <rect style="fill:#3c3c3b;fill-opacity:1;stroke:none;stroke-width:1.51181;stroke-dasharray:9.07087, 9.07087;stop-color:#000000" id="rect12569" width="0.61199951" height="0.61199951" x="56.251999" y="45.271999" rx="0.33000004" ry="0.33000004"></rect> <rect style="fill:#3c3c3b;fill-opacity:1;stroke:none;stroke-width:1.51181;stroke-dasharray:9.07087, 9.07087;stop-color:#000000" id="rect12571" width="0.61199951" height="0.61199951" x="57.476002" y="42.824001" rx="0.33000004" ry="0.33000004"></rect> <rect style="fill:#3c3c3b;fill-opacity:1;stroke:none;stroke-width:1.51181;stroke-dasharray:9.07087, 9.07087;stop-color:#000000" id="rect12573" width="0.61199951" height="0.61199951" x="56.251999" y="42.212002" rx="0.33000004" ry="0.33000004"></rect> <rect style="fill:#3c3c3b;fill-opacity:1;stroke:none;stroke-width:1.51181;stroke-dasharray:9.07087, 9.07087;stop-color:#000000" id="rect12575" width="0.61199951" height="0.61199951" x="56.251999" y="40.375999" rx="0.33000004" ry="0.33000004"></rect> <rect style="fill:#3c3c3b;fill-opacity:1;stroke:none;stroke-width:1.51181;stroke-dasharray:9.07087, 9.07087;stop-color:#000000" id="rect12577" width="0.61199951" height="0.61199951" x="58.088001" y="40.375999" rx="0.33000004" ry="0.33000004"></rect> <rect style="fill:#3c3c3b;fill-opacity:1;stroke:none;stroke-width:1.51181;stroke-dasharray:9.07087, 9.07087;stop-color:#000000" id="rect12579" width="0.61199951" height="0.61199951" x="54.416" y="40.375999" rx="0.33000004" ry="0.33000004"></rect> <rect style="fill:#3c3c3b;fill-opacity:1;stroke:none;stroke-width:1.51181;stroke-dasharray:9.07087, 9.07087;stop-color:#000000" id="rect12581" width="0.61199951" height="0.61199951" x="53.804001" y="40.987999" rx="0.33000004" ry="0.33000004"></rect> <rect style="fill:#3c3c3b;fill-opacity:1;stroke:none;stroke-width:1.51181;stroke-dasharray:9.07087, 9.07087;stop-color:#000000" id="rect12583" width="0.61199951" height="0.61199951" x="50.743999" y="35.48" rx="0.33000004" ry="0.33000004"></rect> <rect style="fill:#3c3c3b;fill-opacity:1;stroke:none;stroke-width:1.51181;stroke-dasharray:9.07087, 9.07087;stop-color:#000000" id="rect12585" width="0.61199951" height="0.61199951" x="52.580002" y="47.108002" rx="0.30000004" ry="0.30000004"></rect> <rect style="fill:#3c3c3b;fill-opacity:1;stroke:none;stroke-width:1.51181;stroke-dasharray:9.07087, 9.07087;stop-color:#000000" id="rect12587" width="0.61199951" height="0.61199951" x="48.296001" y="50.167999" rx="0.30000004" ry="0.30000004"></rect> <rect style="fill:#3c3c3b;fill-opacity:1;stroke:none;stroke-width:1.51181;stroke-dasharray:9.07087, 9.07087;stop-color:#000000" id="rect33276" width="0.61199951" height="0.61199951" x="48.924023" y="50.1684" rx="0.33000004" ry="0.33000004"></rect> <rect style="fill:#3c3c3b;fill-opacity:1;stroke:none;stroke-width:1.51181;stroke-dasharray:9.07087, 9.07087;stop-color:#000000" id="rect33278" width="0.61199951" height="0.61199951" x="56.268024" y="47.720402" rx="0.33000004" ry="0.33000004"></rect> <rect style="fill:#3c3c3b;fill-opacity:1;stroke:none;stroke-width:1.51181;stroke-dasharray:9.07087, 9.07087;stop-color:#000000" id="rect33280" width="0.61199951" height="0.61199951" x="57.492023" y="47.108402" rx="0.33000004" ry="0.33000004"></rect> <rect style="fill:#3c3c3b;fill-opacity:1;stroke:none;stroke-width:1.51181;stroke-dasharray:9.07087, 9.07087;stop-color:#000000" id="rect33292" width="0.61199951" height="0.61199951" x="44.624001" y="51.391998" rx="0.33000004" ry="0.33000004"></rect> <rect style="fill:#3c3c3b;fill-opacity:1;stroke:none;stroke-width:1.51181;stroke-dasharray:9.07087, 9.07087;stop-color:#000000" id="rect33294" width="0.61199951" height="0.61199951" x="44.012001" y="52.003998" rx="0.33000004" ry="0.33000004"></rect> </g> <g id="g39057" style="fill:#3c3c3b;fill-opacity:1"> <g id="g37195" style="fill:#3c3c3b;fill-opacity:1"> <rect style="fill:#3c3c3b;fill-opacity:1;stroke:none;stroke-width:0.682792;stroke-dasharray:4.09676, 4.09676;stop-color:#000000" id="rect29468" width="2.0963147" height="2.1113951" x="44.493843" y="36.566303" rx="1.0350001" ry="1.0350001"></rect> <path id="path36835" style="opacity:1;fill:#3c3c3b;fill-opacity:1;stroke:none;stroke-width:1.66501;stroke-dasharray:9.99006, 9.99006;stop-color:#000000" d="m 45.542969,35.271484 a 2.35,2.35 0 0 0 -2.351563,2.34961 2.35,2.35 0 0 0 2.351563,2.351562 2.35,2.35 0 0 0 2.349609,-2.351562 2.35,2.35 0 0 0 -2.349609,-2.34961 z m 0,0.59961 a 1.75,1.75 0 0 1 1.75,1.75 1.75,1.75 0 0 1 -1.75,1.75 1.75,1.75 0 0 1 -1.75,-1.75 1.75,1.75 0 0 1 1.75,-1.75 z"></path> </g> <g id="g37201" transform="translate(11.031251)" style="fill:#3c3c3b;fill-opacity:1"> <rect style="fill:#3c3c3b;fill-opacity:1;stroke:none;stroke-width:0.682792;stroke-dasharray:4.09676, 4.09676;stop-color:#000000" id="rect37197" width="2.0963147" height="2.1113951" x="44.493843" y="36.566303" rx="1.0350001" ry="1.0350001"></rect> <path id="path37199" style="opacity:1;fill:#3c3c3b;fill-opacity:1;stroke:none;stroke-width:1.66501;stroke-dasharray:9.99006, 9.99006;stop-color:#000000" d="m 45.542969,35.271484 a 2.35,2.35 0 0 0 -2.351563,2.34961 2.35,2.35 0 0 0 2.351563,2.351562 2.35,2.35 0 0 0 2.349609,-2.351562 2.35,2.35 0 0 0 -2.349609,-2.34961 z m 0,0.59961 a 1.75,1.75 0 0 1 1.75,1.75 1.75,1.75 0 0 1 -1.75,1.75 1.75,1.75 0 0 1 -1.75,-1.75 1.75,1.75 0 0 1 1.75,-1.75 z"></path> </g> <g id="g37207" transform="translate(7.5001621e-6,11.01593)" style="fill:#3c3c3b;fill-opacity:1"> <rect style="fill:#3c3c3b;fill-opacity:1;stroke:none;stroke-width:0.682792;stroke-dasharray:4.09676, 4.09676;stop-color:#000000" id="rect37203" width="2.0963147" height="2.1113951" x="44.493843" y="36.566303" rx="1.0350001" ry="1.0350001"></rect> <path id="path37205" style="opacity:1;fill:#3c3c3b;fill-opacity:1;stroke:none;stroke-width:1.66501;stroke-dasharray:9.99006, 9.99006;stop-color:#000000" d="m 45.542969,35.271484 a 2.35,2.35 0 0 0 -2.351563,2.34961 2.35,2.35 0 0 0 2.351563,2.351562 2.35,2.35 0 0 0 2.349609,-2.351562 2.35,2.35 0 0 0 -2.349609,-2.34961 z m 0,0.59961 a 1.75,1.75 0 0 1 1.75,1.75 1.75,1.75 0 0 1 -1.75,1.75 1.75,1.75 0 0 1 -1.75,-1.75 1.75,1.75 0 0 1 1.75,-1.75 z"></path> </g> </g> </g> <g id="g43217"> <g id="g38693" transform="matrix(0.9,0,0,0.9,-16.504691,8.2032217)" style="fill:#3c3c3b;fill-opacity:1"> <rect style="fill:#3c3c3b;fill-opacity:1;stroke:none;stroke-width:0.682792;stroke-dasharray:4.09676, 4.09676;stop-color:#000000" id="rect38689" width="2.0963147" height="2.1113951" x="44.493843" y="36.566303" rx="1.0350001" ry="1.0350001"></rect> <path id="path38691" style="opacity:1;fill:#3c3c3b;fill-opacity:1;stroke:none;stroke-width:1.66501;stroke-dasharray:9.99006, 9.99006;stop-color:#000000" d="m 45.542969,35.271484 a 2.35,2.35 0 0 0 -2.351563,2.34961 2.35,2.35 0 0 0 2.351563,2.351562 2.35,2.35 0 0 0 2.349609,-2.351562 2.35,2.35 0 0 0 -2.349609,-2.34961 z m 0,0.59961 a 1.75,1.75 0 0 1 1.75,1.75 1.75,1.75 0 0 1 -1.75,1.75 1.75,1.75 0 0 1 -1.75,-1.75 1.75,1.75 0 0 1 1.75,-1.75 z"></path> </g> <path id="path34017" style="fill:#3c3c3b;fill-opacity:1;stroke:none;stroke-width:1.46894;stroke-dasharray:8.81365, 8.81365;stop-color:#000000" d="m 30.84698,36.235906 a 1.5885,1.5885 0 0 0 -1.589063,1.589062 1.5885,1.5885 0 0 0 1.589063,1.587304 1.5885,1.5885 0 0 0 1.587305,-1.587304 1.5885,1.5885 0 0 0 -1.587305,-1.589062 z m 0,1.061718 a 0.52650001,0.52650001 0 0 1 0.525586,0.527344 0.52650001,0.52650001 0 0 1 -0.525586,0.525586 0.52650001,0.52650001 0 0 1 -0.527344,-0.525586 0.52650001,0.52650001 0 0 1 0.527344,-0.527344 z"></path> <rect class="cls-2" x="27.13448" y="36.235905" width="1.0619999" height="3.1770003" id="rect220" style="fill:#3c3c3b;fill-opacity:1;stroke-width:0.697334"></rect> <rect class="cls-2" x="25.01948" y="36.235905" width="1.0619999" height="3.1770003" id="rect34555" style="fill:#3c3c3b;fill-opacity:1;stroke-width:0.697334"></rect> <rect class="cls-2" x="22.895479" y="36.235905" width="1.0619999" height="3.1770003" id="rect34557" style="fill:#3c3c3b;fill-opacity:1;stroke-width:0.697334"></rect> <path id="path37289" style="fill:#3c3c3b;fill-opacity:1;stroke:none;stroke-width:1.46894;stroke-dasharray:8.81365, 8.81365;stop-color:#000000" d="m 26.607981,44.713897 a 1.5885,1.5885 0 0 0 -1.589063,1.589062 1.5885,1.5885 0 0 0 1.589063,1.587304 1.5885,1.5885 0 0 0 1.587304,-1.587304 1.5885,1.5885 0 0 0 -1.587304,-1.589062 z m 0,1.061718 a 0.52650001,0.52650001 0 0 1 0.525586,0.527344 0.52650001,0.52650001 0 0 1 -0.525586,0.525586 0.52650001,0.52650001 0 0 1 -0.527344,-0.525586 0.52650001,0.52650001 0 0 1 0.527344,-0.527344 z"></path> <path id="path37499" style="fill:#3c3c3b;fill-opacity:1;stroke:none;stroke-width:1.46894;stroke-dasharray:8.81365, 8.81365;stop-color:#000000" d="m 20.25398,36.236538 a 1.5885,1.5885 0 0 0 -1.589063,1.589061 1.5885,1.5885 0 0 0 1.589063,1.587305 1.5885,1.5885 0 0 0 1.587304,-1.587305 1.5885,1.5885 0 0 0 -1.587304,-1.589061 z m 0,1.061718 a 0.52650001,0.52650001 0 0 1 0.525586,0.527343 0.52650001,0.52650001 0 0 1 -0.525586,0.525587 0.52650001,0.52650001 0 0 1 -0.527344,-0.525587 0.52650001,0.52650001 0 0 1 0.527344,-0.527343 z"></path> <path id="path37503" style="fill:#3c3c3b;fill-opacity:1;stroke:none;stroke-width:1.46894;stroke-dasharray:8.81365, 8.81365;stop-color:#000000" d="m 28.72298,40.474902 a 1.5885,1.5885 0 0 0 -1.589063,1.589061 1.5885,1.5885 0 0 0 1.589063,1.587305 1.5885,1.5885 0 0 0 1.587304,-1.587305 1.5885,1.5885 0 0 0 -1.587304,-1.589061 z m 0,1.061718 a 0.52650001,0.52650001 0 0 1 0.525586,0.527343 0.52650001,0.52650001 0 0 1 -0.525586,0.525587 0.52650001,0.52650001 0 0 1 -0.527344,-0.525587 0.52650001,0.52650001 0 0 1 0.527344,-0.527343 z"></path> <rect class="cls-2" x="31.37348" y="40.474903" width="1.0619999" height="3.1770003" id="rect37507" style="fill:#3c3c3b;fill-opacity:1;stroke-width:0.697334"></rect> <rect class="cls-2" x="31.37348" y="44.713898" width="1.0619999" height="3.1770003" id="rect37909" style="fill:#3c3c3b;fill-opacity:1;stroke-width:0.697334"></rect> <rect class="cls-2" x="29.25848" y="44.713898" width="1.0619999" height="3.1770003" id="rect37911" style="fill:#3c3c3b;fill-opacity:1;stroke-width:0.697334"></rect> <path id="path37915" style="fill:#3c3c3b;fill-opacity:1;stroke:none;stroke-width:1.46894;stroke-dasharray:8.81365, 8.81365;stop-color:#000000" d="m 22.377981,44.713897 a 1.5885,1.5885 0 0 0 -1.589063,1.589062 1.5885,1.5885 0 0 0 1.589063,1.587304 1.5885,1.5885 0 0 0 1.587304,-1.587304 1.5885,1.5885 0 0 0 -1.587304,-1.589062 z m 0,1.061718 a 0.52650001,0.52650001 0 0 1 0.525586,0.527344 0.52650001,0.52650001 0 0 1 -0.525586,0.525586 0.52650001,0.52650001 0 0 1 -0.527344,-0.525586 0.52650001,0.52650001 0 0 1 0.527344,-0.527344 z"></path> <rect class="cls-2" x="18.66548" y="44.713898" width="1.0619999" height="3.1770003" id="rect37919" style="fill:#3c3c3b;fill-opacity:1;stroke-width:0.697334"></rect> <path id="path38081" style="fill:#3c3c3b;fill-opacity:1;stroke:none;stroke-width:1.46894;stroke-dasharray:8.81365, 8.81365;stop-color:#000000" d="m 30.84698,48.952892 a 1.5885,1.5885 0 0 0 -1.589063,1.589062 1.5885,1.5885 0 0 0 1.589063,1.587305 1.5885,1.5885 0 0 0 1.587305,-1.587305 1.5885,1.5885 0 0 0 -1.587305,-1.589062 z m 0,1.061719 a 0.52650001,0.52650001 0 0 1 0.525586,0.527343 0.52650001,0.52650001 0 0 1 -0.525586,0.525587 0.52650001,0.52650001 0 0 1 -0.527344,-0.525587 0.52650001,0.52650001 0 0 1 0.527344,-0.527343 z"></path> <rect class="cls-2" x="27.134481" y="48.952892" width="1.0619999" height="3.1770003" id="rect38083" style="fill:#3c3c3b;fill-opacity:1;stroke-width:0.697334"></rect> <rect class="cls-2" x="25.01948" y="48.952892" width="1.0619999" height="3.1770003" id="rect38085" style="fill:#3c3c3b;fill-opacity:1;stroke-width:0.697334"></rect> <rect class="cls-2" x="22.90448" y="48.952892" width="1.0619999" height="3.1770003" id="rect38087" style="fill:#3c3c3b;fill-opacity:1;stroke-width:0.697334"></rect> <path id="path38089" style="fill:#3c3c3b;fill-opacity:1;stroke:none;stroke-width:1.46894;stroke-dasharray:8.81365, 8.81365;stop-color:#000000" d="m 20.25398,48.952892 a 1.5885,1.5885 0 0 0 -1.589063,1.589062 1.5885,1.5885 0 0 0 1.589063,1.587305 1.5885,1.5885 0 0 0 1.587304,-1.587305 1.5885,1.5885 0 0 0 -1.587304,-1.589062 z m 0,1.061719 a 0.52650001,0.52650001 0 0 1 0.525586,0.527343 0.52650001,0.52650001 0 0 1 -0.525586,0.525587 0.52650001,0.52650001 0 0 1 -0.527344,-0.525587 0.52650001,0.52650001 0 0 1 0.527344,-0.527343 z"></path> <rect class="cls-2" x="18.665482" y="53.191887" width="1.0619999" height="3.1770003" id="rect38171" style="fill:#3c3c3b;fill-opacity:1;stroke-width:0.697334"></rect> <path id="path38173" style="fill:#3c3c3b;fill-opacity:1;stroke:none;stroke-width:1.46894;stroke-dasharray:8.81365, 8.81365;stop-color:#000000" d="m 26.607981,53.191889 a 1.5885,1.5885 0 0 0 -1.589063,1.589062 1.5885,1.5885 0 0 0 1.589063,1.587304 1.5885,1.5885 0 0 0 1.587304,-1.587304 1.5885,1.5885 0 0 0 -1.587304,-1.589062 z m 0,1.061718 a 0.52650001,0.52650001 0 0 1 0.525586,0.527344 0.52650001,0.52650001 0 0 1 -0.525586,0.525586 0.52650001,0.52650001 0 0 1 -0.527344,-0.525586 0.52650001,0.52650001 0 0 1 0.527344,-0.527344 z"></path> <rect class="cls-2" x="20.78948" y="53.191887" width="1.0619999" height="3.1770003" id="rect38175" style="fill:#3c3c3b;fill-opacity:1;stroke-width:0.697334"></rect> <rect class="cls-2" x="22.90448" y="53.191887" width="1.0619999" height="3.1770003" id="rect38177" style="fill:#3c3c3b;fill-opacity:1;stroke-width:0.697334"></rect> <rect class="cls-2" x="29.25848" y="53.191887" width="1.0619999" height="3.1770003" id="rect38179" style="fill:#3c3c3b;fill-opacity:1;stroke-width:0.697334"></rect> <rect class="cls-2" x="31.37348" y="53.191887" width="1.0619999" height="3.1770003" id="rect38181" style="fill:#3c3c3b;fill-opacity:1;stroke-width:0.697334"></rect> <rect class="cls-2" x="18.665482" y="57.430885" width="1.0619999" height="3.1770003" id="rect38183" style="fill:#3c3c3b;fill-opacity:1;stroke-width:0.697334"></rect> <path id="path38185" style="fill:#3c3c3b;fill-opacity:1;stroke:none;stroke-width:1.46894;stroke-dasharray:8.81365, 8.81365;stop-color:#000000" d="m 22.377981,57.430884 a 1.5885,1.5885 0 0 0 -1.589063,1.589062 1.5885,1.5885 0 0 0 1.589063,1.587305 1.5885,1.5885 0 0 0 1.587304,-1.587305 1.5885,1.5885 0 0 0 -1.587304,-1.589062 z m 0,1.061719 a 0.52650001,0.52650001 0 0 1 0.525586,0.527343 0.52650001,0.52650001 0 0 1 -0.525586,0.525586 0.52650001,0.52650001 0 0 1 -0.527344,-0.525586 0.52650001,0.52650001 0 0 1 0.527344,-0.527343 z"></path> <rect class="cls-2" x="20.789478" y="40.474903" width="1.0619999" height="3.1770003" id="rect38267" style="fill:#3c3c3b;fill-opacity:1;stroke-width:0.697334"></rect> <rect class="cls-2" x="18.66548" y="40.474903" width="1.0619999" height="3.1770003" id="rect38269" style="fill:#3c3c3b;fill-opacity:1;stroke-width:0.697334"></rect> <rect class="cls-2" x="29.258482" y="57.430885" width="1.0619999" height="3.1770003" id="rect43098" style="fill:#3c3c3b;fill-opacity:1;stroke-width:0.697334"></rect> <rect class="cls-2" x="27.14348" y="57.430885" width="1.0619999" height="3.1770003" id="rect43100" style="fill:#3c3c3b;fill-opacity:1;stroke-width:0.697334"></rect> <rect class="cls-2" x="25.028481" y="57.430885" width="1.0619999" height="3.1770003" id="rect43102" style="fill:#3c3c3b;fill-opacity:1;stroke-width:0.697334"></rect> </g> <path id="path4343" style="fill:#59bfc7;fill-opacity:1;stroke:none;stroke-width:1px;stroke-linecap:butt;stroke-linejoin:miter;stroke-opacity:1" d="m 58.730469,46.753702 -15.330078,5.515625 c 0,5.57487 0,11.149739 0,16.724609 0,2.816978 -2.28361,5.100584 -5.100586,5.100584 -2.816976,0 -5.100586,-2.283606 -5.100586,-5.100584 0,-4.351562 0,-8.703125 0,-13.054687 l -15.298828,5.503906 c 0.06245,2.669957 0,4.920764 0,7.550781 -0.0027,1.719984 0.211859,3.433421 0.638671,5.099609 0.46098,1.787463 1.164796,3.503303 2.091797,5.09961 0.674824,1.17531 1.468713,2.278115 2.369141,3.291016 0.562094,0.639699 1.163521,1.243735 1.800781,1.808593 6.566574,5.80752 16.112243,6.762559 23.699219,2.371094 1.174719,-0.675553 2.276868,-1.470095 3.289062,-2.371094 0.637974,-0.567354 1.242505,-1.171232 1.810547,-1.808593 C 54.50769,81.470124 55.31184,80.367607 56,79.193155 c 1.796943,-3.0981 2.739192,-6.617718 2.730469,-10.199219 0,-7.413411 0,-14.826823 0,-22.240234 z" sodipodi:nodetypes="cccscccccccccccccc"></path> </g> </g> </svg> 