<svg xmlns="http://www.w3.org/2000/svg" fill-rule="evenodd" viewBox="0 0 100 100">
    <path d="M39.5 27a1.5 1.5 0 0 0 1.5-1.5v-6a1.5 1.5 0 0 0-3 0v6a1.5 1.5 0 0 0 1.5 1.5Zm13 0a1.5 1.5 0 0 0 1.5-1.5v-6a1.5 1.5 0 0 0-3 0v6a1.5 1.5 0 0 0 1.5 1.5ZM38 49.5a1.5 1.5 0 0 0 3 0v-6a1.5 1.5 0 0 0-3 0Zm13 0a1.5 1.5 0 0 0 3 0v-6a1.5 1.5 0 0 0-3 0Zm-13 24a1.5 1.5 0 0 0 3 0v-6a1.5 1.5 0 0 0-3 0Zm13 0a1.5 1.5 0 0 0 3 0v-6a1.5 1.5 0 0 0-3 0ZM15.5 43a1.5 1.5 0 0 0-1.5 1.5v6a1.5 1.5 0 0 0 3 0v-6a1.5 1.5 0 0 0-1.5-1.5ZM72 52.5v6a1.5 1.5 0 0 0 3 0v-6a1.5 1.5 0 0 0-3 0ZM86.5 51a1.5 1.5 0 0 0-1.5 1.5v6a1.5 1.5 0 0 0 3 0v-6a1.5 1.5 0 0 0-1.5-1.5Z"/>
    <path d="M97.59 39.78 80.81 21.93a1.5 1.5 0 0 0-1.08-.47 1.69 1.69 0 0 0-1.09.45L64 37V9.5A1.5 1.5 0 0 0 62.5 8h-34A1.5 1.5 0 0 0 27 9.5V30H5.5A1.5 1.5 0 0 0 4 31.5v33a1.5 1.5 0 0 0 3 0V33h20v20.5a1.5 1.5 0 0 0 3 0V11h31v74H20.5a1.5 1.5 0 0 0 0 3h60a1.5 1.5 0 0 0 0-3H64V41.25l15.7-16.12L95 41.4v21.1a1.5 1.5 0 0 0 3 0V40.8a1.5 1.5 0 0 0-.41-1.02Z"/>
</svg>
