<?xml version="1.0" encoding="utf-8"?>
<!-- Generator: Adobe Illustrator 25.2.0, SVG Export Plug-In . SVG Version: 6.00 Build 0)  -->
<svg version="1.1" id="Слой_1" xmlns="http://www.w3.org/2000/svg" xmlns:xlink="http://www.w3.org/1999/xlink" x="0px" y="0px"
	 viewBox="0 0 63.4 90" style="enable-background:new 0 0 63.4 90;" xml:space="preserve" width="63.4" height="90">
<style type="text/css">
	.st0{fill:#D1AF69;}
	.st1{fill:#1E2345;}
	.st2{fill:none;}
	.st3{fill:#192542;}
	.st4{opacity:0.58;fill:#192542;}
</style>
<polygon class="st0" points="6.9,16.4 48.8,0 16.5,20.1 "/>
<path class="st1" d="M23.4,18.9l2.3-1.4C25,17.9,24.2,18.4,23.4,18.9z"/>
<path class="st2" d="M46.8,28c0.1,0.2,0.2,0.4,0.3,0.5C47,28.3,46.9,28.2,46.8,28z"/>
<path class="st3" d="M47.1,28.5c0,0.1,0.1,0.1,0.1,0.2l0,0C47.2,28.7,47.2,28.6,47.1,28.5z"/>
<path class="st3" d="M22.1,24.4L22.1,24.4l1.2-0.8c-2.1,1.1-4,2.6-5.5,4.4C19,26.7,20.4,25.5,22.1,24.4z"/>
<g>
	<path class="st3" d="M0,70.3h6.3c4,0,7,1.2,7,4.8c0,1.8-1,3.6-2.7,4.2v0.1c2.2,0.5,3.8,2,3.8,4.6c0,3.9-3.2,5.7-7.6,5.7H0V70.3z
		 M6,78.3c2.7,0,3.9-1.1,3.9-2.7c0-1.9-1.3-2.6-3.8-2.6H3.5v5.3H6z M6.4,87c2.9,0,4.5-1,4.5-3.2c0-2-1.6-2.9-4.5-2.9H3.5V87H6.4z
		 M18,70.3h11.9v2.9h-8.4v16.5H18V70.3z M37.3,73.2h-5.7v-2.9h14.8v2.9h-5.7v16.5h-3.5V73.2z M49.4,89.7l0.7-3
		c0.3,0.1,0.7,0.2,1.4,0.2c1.1,0,1.8-0.4,2.2-1.2l0.4-0.8l-6.7-14.5H51l3,7.1l1.6,4.2h0.1l1.5-4.2l2.7-7.1h3.5l-6.3,15.4
		C56,88.4,54.4,90,51.6,90C50.6,90,50,89.9,49.4,89.7z"/>
	<path class="st3" d="M13.8,42.9c0-0.2-0.1-0.4-0.1-0.6C13.8,42.4,13.8,42.7,13.8,42.9z"/>
	<path class="st3" d="M13.6,39.6c0,0,0-0.1,0-0.2C13.6,39.5,13.6,39.6,13.6,39.6c0,0.9,0.1,1.7,0.2,2.5
		C13.6,41.2,13.6,40.4,13.6,39.6C13.6,39.6,13.6,39.6,13.6,39.6z"/>
	<path class="st4" d="M13.7,42.2c0-0.1,0-0.1,0-0.2C13.7,42.1,13.7,42.2,13.7,42.2z"/>
	<g>
		<polygon class="st3" points="18.4,30.1 18.4,35.7 45.3,17.3 45.3,11.7 29.7,22.4 		"/>
		<path class="st3" d="M45.3,20.7C45.4,20.8,45.3,20.7,45.3,20.7L45.3,20.7z"/>
		<path class="st3" d="M45.3,20.7l-4.6,3.2c2.7,1.5,4.8,3.6,6.4,6.2c-0.1,0.2-0.2,0.3-0.3,0.5c-0.8,1-1.5,2-2.3,3.1
			c-0.1,0.1-0.1,0.2-0.1,0.3c0.3,0.8,0.7,1.6,1,2.4c0,0.1,0.2,0.2,0.3,0.2c0.7,0.1,1.4,0.2,2.1,0.3c0.6,0.1,1.2,0.2,1.8,0.3
			c0.1,0.8,0.2,1.6,0.2,2.4c0,1.4-0.2,2.8-0.5,4.1c-1,0.2-2,0.3-3,0.5c-0.1,0-0.1,0-0.1,0c0,0,0,0-0.1,0c-0.7,0.1-0.8,0.3-0.8,0.3
			l-0.3,0.8L44.4,47c-0.1,0.1-0.1,0.2,0,0.3c0.7,0.9,1.4,1.8,2.1,2.7c-1.3,1.9-3,3.5-4.9,4.7L41,54.3l-0.3-0.2l0-30.2l-3.6,2.5
			L37,56.9c-1.1,0.3-2.3,0.6-3.5,0.7l0-28.9l-3.6,2.5l-0.1,26.3c-1.2-0.1-2.3-0.4-3.5-0.7l0-23.3l-3.6,2.5l0,19.2
			c-4.6-2.6-7.9-7.2-8.9-12.5c0-0.2-0.1-0.4-0.1-0.6c0-0.1,0-0.1,0-0.2c-0.1-0.8-0.2-1.6-0.2-2.4c0-0.1,0-0.1,0-0.2
			c0-4.4,1.7-8.4,4.3-11.5c1.5-1.8,3.4-3.3,5.5-4.4l10.3-7.1l11.7-8l3.6-8L23.2,17.9l-4.3,3l0,0c-3.2,2.1-5.5,4.3-7.2,6.7
			c-2.1,3.5-3.4,7.6-3.4,12.1c0,12.9,10.4,23.3,23.3,23.3C44.5,62.9,55,52.5,55,39.6C55,31.9,51.2,25,45.3,20.7z"/>
	</g>
</g>
</svg>
