<svg xmlns="http://www.w3.org/2000/svg" width="40.83" height="53.924" viewBox="0 0 10.803 14.267"><path style="opacity:1;fill:#59bfc7;fill-opacity:1;stroke:none;stroke-width:1.51181;stroke-dasharray:9.07087,9.07087;stop-color:#000" d="M17.9 35.48h15.3v26.568H17.9zM43.4 35.48h15.33v18.066H43.4z" transform="matrix(.26458 0 0 .26458 -4.736 -9.387)"/><g style="fill:#3c3c3b;fill-opacity:1" transform="matrix(.23812 0 0 .23812 -3.383 -8.254)"><rect style="opacity:1;fill:#3c3c3b;fill-opacity:1;stroke:none;stroke-width:1.51181;stroke-dasharray:9.07087,9.07087;stop-color:#000" width=".612" height=".612" x="54.416" y="46.496" rx=".33" ry=".33"/><path style="opacity:1;fill:#3c3c3b;fill-opacity:1;stroke:none;stroke-width:1.51181;stroke-dasharray:9.07087,9.07087;stop-color:#000" d="M53.953 45.271a.73.73 0 0 0-.73.731v1.6c0 .404.326.73.73.73h1.568a.73.73 0 0 0 .731-.73v-1.6a.73.73 0 0 0-.73-.73zm.281.614h.977c.238 0 .43.191.43.43v.974a.43.43 0 0 1-.43.432h-.977a.43.43 0 0 1-.43-.432v-.975c0-.238.192-.43.43-.43z"/></g><g style="fill:#3c3c3b;fill-opacity:1"><path style="fill:#3c3c3b;fill-opacity:1;stroke:none;stroke-width:1.29081;stroke-dasharray:7.74484,7.74484;stop-color:#000" d="M48.327 35.48h.446v1.224h-.446zM53.223 35.48h.446v1.224h-.446zM48.939 35.48h.446v2.448h-.446zM49.551 36.092h.446v2.448h-.446zM50.163 36.704h.446v1.224h-.446zM51.387 36.704h.446v1.836h-.446zM50.775 37.928h.446v2.448h-.446zM51.999 37.928h.446v3.06h-.446zM49.551 39.152h.446v3.06h-.446zM48.327 39.152h.446v1.224h-.446zM48.939 39.764h.446v1.224h-.446zM45.267 40.376h.446v1.836h-.446zM44.655 40.376h.446V41.6h-.446zM43.431 40.376h.446V41.6h-.446zM46.491 40.376h.446V41.6h-.446zM46.491 42.212h.446v3.06h-.446zM45.879 44.048h.446v1.836h-.446zM45.267 44.048h.446v1.224h-.446zM44.043 44.66h.446v1.224h-.446zM43.431 43.436h.446v1.224h-.446zM44.043 42.824h.446v1.224h-.446zM47.715 42.824h.446v3.06h-.446zM48.939 43.436h.446v1.836h-.446zM48.327 42.212h.446v1.224h-.446zM49.551 42.824h.446v1.224h-.446zM51.387 40.988h.446v3.06h-.446zM51.999 42.212h.446v3.06h-.446zM50.775 45.884h.446v3.672h-.446zM48.327 45.884h.446v1.836h-.446zM48.939 47.72h.446v1.224h-.446zM48.327 48.332h.446v1.224h-.446zM49.551 48.944h.446v1.836h-.446zM51.387 47.72h.446v1.836h-.446zM53.223 43.436h.446v1.836h-.446zM53.835 44.048h.446v1.224h-.446zM55.671 42.824h.446v2.448h-.446zM55.059 42.824h.446v1.224h-.446zM54.447 42.212h.446v1.836h-.446zM53.835 42.212h.446v1.224h-.446zM53.223 40.376h.446v2.448h-.446zM55.059 40.988h.446v1.224h-.446zM56.895 42.212h.446v1.224h-.446zM57.507 40.376h.446V41.6h-.446zM58.119 42.824h.446v1.224h-.446zM50.775 44.048h.446v1.224h-.446zM54.461 48.332h.446v1.224h-.446zM52.627 48.944h.446v1.224h-.446zM43.431 51.392h.446v2.448h-.446zM45.879 51.392h.446v1.224h-.446z" transform="matrix(.23812 0 0 .23812 -3.369 -8.254)"/></g><path style="fill:#3c3c3b;fill-opacity:1;stroke:none;stroke-width:1.51067;stroke-dasharray:9.06401,9.06401;stop-color:#000" d="M57.781 45.24a.95.95 0 0 0-.949.95.95.95 0 0 0 .95.949.95.95 0 0 0 .948-.95.95.95 0 0 0-.949-.949zm0 .643a.306.306 0 1 1 0 .613.306.306 0 0 1 0-.613z" transform="matrix(.23812 0 0 .23812 -3.383 -8.254)"/><g style="fill:#3c3c3b;fill-opacity:1" transform="matrix(.23812 0 0 .23812 -3.383 -8.254)"><rect style="fill:#3c3c3b;fill-opacity:1;stroke:none;stroke-width:1.51181;stroke-dasharray:9.07087,9.07087;stop-color:#000" width=".612" height=".612" x="43.4" y="42.212" rx=".33" ry=".33"/><rect style="fill:#3c3c3b;fill-opacity:1;stroke:none;stroke-width:1.51181;stroke-dasharray:9.07087,9.07087;stop-color:#000" width=".612" height=".612" x="44.624" y="42.212" rx=".33" ry=".33"/><rect style="fill:#3c3c3b;fill-opacity:1;stroke:none;stroke-width:1.51181;stroke-dasharray:9.07087,9.07087;stop-color:#000" width=".612" height=".612" x="44.012" y="40.988" rx=".33" ry=".33"/><rect style="fill:#3c3c3b;fill-opacity:1;stroke:none;stroke-width:1.51181;stroke-dasharray:9.07087,9.07087;stop-color:#000" width=".612" height=".612" x="43.4" y="45.272" rx=".33" ry=".33"/><rect style="fill:#3c3c3b;fill-opacity:1;stroke:none;stroke-width:1.51181;stroke-dasharray:9.07087,9.07087;stop-color:#000" width=".612" height=".612" x="44.624" y="44.66" rx=".33" ry=".33"/><rect style="fill:#3c3c3b;fill-opacity:1;stroke:none;stroke-width:1.51181;stroke-dasharray:9.07087,9.07087;stop-color:#000" width=".612" height=".612" x="45.848" y="42.824" rx=".33" ry=".33"/><rect style="fill:#3c3c3b;fill-opacity:1;stroke:none;stroke-width:1.51181;stroke-dasharray:9.07087,9.07087;stop-color:#000" width=".612" height=".612" x="47.072" y="41.6" rx=".33" ry=".33"/><rect style="fill:#3c3c3b;fill-opacity:1;stroke:none;stroke-width:1.51181;stroke-dasharray:9.07087,9.07087;stop-color:#000" width=".612" height=".612" x="47.684" y="40.376" rx=".33" ry=".33"/><rect style="fill:#3c3c3b;fill-opacity:1;stroke:none;stroke-width:1.51181;stroke-dasharray:9.07087,9.07087;stop-color:#000" width=".612" height=".612" x="47.072" y="40.376" rx=".33" ry=".33"/><rect style="fill:#3c3c3b;fill-opacity:1;stroke:none;stroke-width:1.51181;stroke-dasharray:9.07087,9.07087;stop-color:#000" width=".612" height=".612" x="47.072" y="42.824" rx=".33" ry=".33"/><rect style="fill:#3c3c3b;fill-opacity:1;stroke:none;stroke-width:1.51181;stroke-dasharray:9.07087,9.07087;stop-color:#000" width=".612" height=".612" x="47.072" y="44.048" rx=".33" ry=".33"/><rect style="fill:#3c3c3b;fill-opacity:1;stroke:none;stroke-width:1.51181;stroke-dasharray:9.07087,9.07087;stop-color:#000" width=".612" height=".612" x="47.072" y="45.272" rx=".33" ry=".33"/><rect style="fill:#3c3c3b;fill-opacity:1;stroke:none;stroke-width:1.51181;stroke-dasharray:9.07087,9.07087;stop-color:#000" width=".612" height=".612" x="48.296" y="44.66" rx=".33" ry=".33"/><rect style="fill:#3c3c3b;fill-opacity:1;stroke:none;stroke-width:1.51181;stroke-dasharray:9.07087,9.07087;stop-color:#000" width=".612" height=".612" x="48.908" y="41.6" rx=".33" ry=".33"/><rect style="fill:#3c3c3b;fill-opacity:1;stroke:none;stroke-width:1.51181;stroke-dasharray:9.07087,9.07087;stop-color:#000" width=".612" height=".612" x="50.132" y="42.212" rx=".33" ry=".33"/><rect style="fill:#3c3c3b;fill-opacity:1;stroke:none;stroke-width:1.51181;stroke-dasharray:9.07087,9.07087;stop-color:#000" width=".612" height=".612" x="50.744" y="41.6" rx=".33" ry=".33"/><rect style="fill:#3c3c3b;fill-opacity:1;stroke:none;stroke-width:1.51181;stroke-dasharray:9.07087,9.07087;stop-color:#000" width=".612" height=".612" x="50.132" y="43.436" rx=".33" ry=".33"/><rect style="fill:#3c3c3b;fill-opacity:1;stroke:none;stroke-width:1.51181;stroke-dasharray:9.07087,9.07087;stop-color:#000" width=".612" height=".612" x="50.132" y="45.272" rx=".33" ry=".33"/><rect style="fill:#3c3c3b;fill-opacity:1;stroke:none;stroke-width:1.51181;stroke-dasharray:9.07087,9.07087;stop-color:#000" width=".612" height=".612" x="49.52" y="45.884" rx=".33" ry=".33"/><rect style="fill:#3c3c3b;fill-opacity:1;stroke:none;stroke-width:1.51181;stroke-dasharray:9.07087,9.07087;stop-color:#000" width=".612" height=".612" x="48.908" y="45.884" rx=".33" ry=".33"/><rect style="fill:#3c3c3b;fill-opacity:1;stroke:none;stroke-width:1.51181;stroke-dasharray:9.07087,9.07087;stop-color:#000" width=".612" height=".612" x="50.132" y="46.496" rx=".33" ry=".33"/><rect style="fill:#3c3c3b;fill-opacity:1;stroke:none;stroke-width:1.51181;stroke-dasharray:9.07087,9.07087;stop-color:#000" width=".612" height=".612" x="51.968" y="46.496" rx=".33" ry=".33"/><rect style="fill:#3c3c3b;fill-opacity:1;stroke:none;stroke-width:1.51181;stroke-dasharray:9.07087,9.07087;stop-color:#000" width=".612" height=".612" x="51.356" y="46.496" rx=".33" ry=".33"/><rect style="fill:#3c3c3b;fill-opacity:1;stroke:none;stroke-width:1.51181;stroke-dasharray:9.07087,9.07087;stop-color:#000" width=".612" height=".612" x="51.356" y="45.272" rx=".33" ry=".33"/><rect style="fill:#3c3c3b;fill-opacity:1;stroke:none;stroke-width:1.51181;stroke-dasharray:9.07087,9.07087;stop-color:#000" width=".612" height=".612" x="52.58" y="45.272" rx=".33" ry=".33"/><rect style="fill:#3c3c3b;fill-opacity:1;stroke:none;stroke-width:1.51181;stroke-dasharray:9.07087,9.07087;stop-color:#000" width=".612" height=".612" x="52.58" y="43.436" rx=".33" ry=".33"/><rect style="fill:#3c3c3b;fill-opacity:1;stroke:none;stroke-width:1.51181;stroke-dasharray:9.07087,9.07087;stop-color:#000" width=".612" height=".612" x="48.908" y="38.54" rx=".33" ry=".33"/><rect style="fill:#3c3c3b;fill-opacity:1;stroke:none;stroke-width:1.51181;stroke-dasharray:9.07087,9.07087;stop-color:#000" width=".612" height=".612" x="48.296" y="37.316" rx=".33" ry=".33"/><rect style="fill:#3c3c3b;fill-opacity:1;stroke:none;stroke-width:1.51181;stroke-dasharray:9.07087,9.07087;stop-color:#000" width=".612" height=".612" x="52.58" y="39.764" rx=".33" ry=".33"/><rect style="fill:#3c3c3b;fill-opacity:1;stroke:none;stroke-width:1.51181;stroke-dasharray:9.07087,9.07087;stop-color:#000" width=".612" height=".612" x="53.192" y="39.152" rx=".33" ry=".33"/><rect style="fill:#3c3c3b;fill-opacity:1;stroke:none;stroke-width:1.51181;stroke-dasharray:9.07087,9.07087;stop-color:#000" width=".612" height=".612" x="53.192" y="37.928" rx=".33" ry=".33"/><rect style="fill:#3c3c3b;fill-opacity:1;stroke:none;stroke-width:1.51181;stroke-dasharray:9.07087,9.07087;stop-color:#000" width=".612" height=".612" x="52.58" y="37.928" rx=".33" ry=".33"/><rect style="fill:#3c3c3b;fill-opacity:1;stroke:none;stroke-width:1.51181;stroke-dasharray:9.07087,9.07087;stop-color:#000" width=".612" height=".612" x="52.58" y="36.704" rx=".33" ry=".33"/><rect style="fill:#3c3c3b;fill-opacity:1;stroke:none;stroke-width:1.51181;stroke-dasharray:9.07087,9.07087;stop-color:#000" width=".612" height=".612" x="51.968" y="36.704" rx=".33" ry=".33"/><rect style="fill:#3c3c3b;fill-opacity:1;stroke:none;stroke-width:1.51181;stroke-dasharray:9.07087,9.07087;stop-color:#000" width=".612" height=".612" x="51.356" y="35.48" rx=".33" ry=".33"/><rect style="fill:#3c3c3b;fill-opacity:1;stroke:none;stroke-width:1.51181;stroke-dasharray:9.07087,9.07087;stop-color:#000" width=".612" height=".612" x="50.132" y="47.72" rx=".33" ry=".33"/><rect style="fill:#3c3c3b;fill-opacity:1;stroke:none;stroke-width:1.51181;stroke-dasharray:9.07087,9.07087;stop-color:#000" width=".612" height=".612" x="49.52" y="47.72" rx=".33" ry=".33"/><rect style="fill:#3c3c3b;fill-opacity:1;stroke:none;stroke-width:1.51181;stroke-dasharray:9.07087,9.07087;stop-color:#000" width=".612" height=".612" x="50.132" y="48.944" rx=".33" ry=".33"/><rect style="fill:#3c3c3b;fill-opacity:1;stroke:none;stroke-width:1.51181;stroke-dasharray:9.07087,9.07087;stop-color:#000" width=".612" height=".612" x="55.028" y="44.66" rx=".33" ry=".33"/><rect style="fill:#3c3c3b;fill-opacity:1;stroke:none;stroke-width:1.51181;stroke-dasharray:9.07087,9.07087;stop-color:#000" width=".612" height=".612" x="57.476" y="44.048" rx=".33" ry=".33"/><rect style="fill:#3c3c3b;fill-opacity:1;stroke:none;stroke-width:1.51181;stroke-dasharray:9.07087,9.07087;stop-color:#000" width=".612" height=".612" x="56.864" y="44.048" rx=".33" ry=".33"/><rect style="fill:#3c3c3b;fill-opacity:1;stroke:none;stroke-width:1.51181;stroke-dasharray:9.07087,9.07087;stop-color:#000" width=".612" height=".612" x="58.088" y="44.66" rx=".33" ry=".33"/><rect style="fill:#3c3c3b;fill-opacity:1;stroke:none;stroke-width:1.51181;stroke-dasharray:9.07087,9.07087;stop-color:#000" width=".612" height=".612" x="56.252" y="45.272" rx=".33" ry=".33"/><rect style="fill:#3c3c3b;fill-opacity:1;stroke:none;stroke-width:1.51181;stroke-dasharray:9.07087,9.07087;stop-color:#000" width=".612" height=".612" x="57.476" y="42.824" rx=".33" ry=".33"/><rect style="fill:#3c3c3b;fill-opacity:1;stroke:none;stroke-width:1.51181;stroke-dasharray:9.07087,9.07087;stop-color:#000" width=".612" height=".612" x="56.252" y="42.212" rx=".33" ry=".33"/><rect style="fill:#3c3c3b;fill-opacity:1;stroke:none;stroke-width:1.51181;stroke-dasharray:9.07087,9.07087;stop-color:#000" width=".612" height=".612" x="56.252" y="40.376" rx=".33" ry=".33"/><rect style="fill:#3c3c3b;fill-opacity:1;stroke:none;stroke-width:1.51181;stroke-dasharray:9.07087,9.07087;stop-color:#000" width=".612" height=".612" x="58.088" y="40.376" rx=".33" ry=".33"/><rect style="fill:#3c3c3b;fill-opacity:1;stroke:none;stroke-width:1.51181;stroke-dasharray:9.07087,9.07087;stop-color:#000" width=".612" height=".612" x="54.416" y="40.376" rx=".33" ry=".33"/><rect style="fill:#3c3c3b;fill-opacity:1;stroke:none;stroke-width:1.51181;stroke-dasharray:9.07087,9.07087;stop-color:#000" width=".612" height=".612" x="53.804" y="40.988" rx=".33" ry=".33"/><rect style="fill:#3c3c3b;fill-opacity:1;stroke:none;stroke-width:1.51181;stroke-dasharray:9.07087,9.07087;stop-color:#000" width=".612" height=".612" x="50.744" y="35.48" rx=".33" ry=".33"/><rect style="fill:#3c3c3b;fill-opacity:1;stroke:none;stroke-width:1.51181;stroke-dasharray:9.07087,9.07087;stop-color:#000" width=".612" height=".612" x="52.58" y="47.108" rx=".3" ry=".3"/><rect style="fill:#3c3c3b;fill-opacity:1;stroke:none;stroke-width:1.51181;stroke-dasharray:9.07087,9.07087;stop-color:#000" width=".612" height=".612" x="48.296" y="50.168" rx=".3" ry=".3"/><rect style="fill:#3c3c3b;fill-opacity:1;stroke:none;stroke-width:1.51181;stroke-dasharray:9.07087,9.07087;stop-color:#000" width=".612" height=".612" x="48.924" y="50.168" rx=".33" ry=".33"/><rect style="fill:#3c3c3b;fill-opacity:1;stroke:none;stroke-width:1.51181;stroke-dasharray:9.07087,9.07087;stop-color:#000" width=".612" height=".612" x="56.268" y="47.72" rx=".33" ry=".33"/><rect style="fill:#3c3c3b;fill-opacity:1;stroke:none;stroke-width:1.51181;stroke-dasharray:9.07087,9.07087;stop-color:#000" width=".612" height=".612" x="57.492" y="47.108" rx=".33" ry=".33"/><rect style="fill:#3c3c3b;fill-opacity:1;stroke:none;stroke-width:1.51181;stroke-dasharray:9.07087,9.07087;stop-color:#000" width=".612" height=".612" x="44.624" y="51.392" rx=".33" ry=".33"/><rect style="fill:#3c3c3b;fill-opacity:1;stroke:none;stroke-width:1.51181;stroke-dasharray:9.07087,9.07087;stop-color:#000" width=".612" height=".612" x="44.012" y="52.004" rx=".33" ry=".33"/></g><g style="fill:#3c3c3b;fill-opacity:1"><g style="fill:#3c3c3b;fill-opacity:1" transform="matrix(.23812 0 0 .23812 -3.383 -8.254)"><rect style="fill:#3c3c3b;fill-opacity:1;stroke:none;stroke-width:.682792;stroke-dasharray:4.09676,4.09676;stop-color:#000" width="2.096" height="2.111" x="44.494" y="36.566" rx="1.035" ry="1.035"/><path style="opacity:1;fill:#3c3c3b;fill-opacity:1;stroke:none;stroke-width:1.66501;stroke-dasharray:9.99006,9.99006;stop-color:#000" d="M45.543 35.271a2.35 2.35 0 0 0-2.352 2.35 2.35 2.35 0 0 0 2.352 2.352 2.35 2.35 0 0 0 2.35-2.352 2.35 2.35 0 0 0-2.35-2.35zm0 .6a1.75 1.75 0 0 1 1.75 1.75 1.75 1.75 0 0 1-1.75 1.75 1.75 1.75 0 0 1-1.75-1.75 1.75 1.75 0 0 1 1.75-1.75z"/></g><g transform="matrix(.23812 0 0 .23812 -.756 -8.254)" style="fill:#3c3c3b;fill-opacity:1"><rect style="fill:#3c3c3b;fill-opacity:1;stroke:none;stroke-width:.682792;stroke-dasharray:4.09676,4.09676;stop-color:#000" width="2.096" height="2.111" x="44.494" y="36.566" rx="1.035" ry="1.035"/><path style="opacity:1;fill:#3c3c3b;fill-opacity:1;stroke:none;stroke-width:1.66501;stroke-dasharray:9.99006,9.99006;stop-color:#000" d="M45.543 35.271a2.35 2.35 0 0 0-2.352 2.35 2.35 2.35 0 0 0 2.352 2.352 2.35 2.35 0 0 0 2.35-2.352 2.35 2.35 0 0 0-2.35-2.35zm0 .6a1.75 1.75 0 0 1 1.75 1.75 1.75 1.75 0 0 1-1.75 1.75 1.75 1.75 0 0 1-1.75-1.75 1.75 1.75 0 0 1 1.75-1.75z"/></g><g transform="matrix(.23812 0 0 .23812 -3.383 -5.631)" style="fill:#3c3c3b;fill-opacity:1"><rect style="fill:#3c3c3b;fill-opacity:1;stroke:none;stroke-width:.682792;stroke-dasharray:4.09676,4.09676;stop-color:#000" width="2.096" height="2.111" x="44.494" y="36.566" rx="1.035" ry="1.035"/><path style="opacity:1;fill:#3c3c3b;fill-opacity:1;stroke:none;stroke-width:1.66501;stroke-dasharray:9.99006,9.99006;stop-color:#000" d="M45.543 35.271a2.35 2.35 0 0 0-2.352 2.35 2.35 2.35 0 0 0 2.352 2.352 2.35 2.35 0 0 0 2.35-2.352 2.35 2.35 0 0 0-2.35-2.35zm0 .6a1.75 1.75 0 0 1 1.75 1.75 1.75 1.75 0 0 1-1.75 1.75 1.75 1.75 0 0 1-1.75-1.75 1.75 1.75 0 0 1 1.75-1.75z"/></g></g><g transform="matrix(.23812 0 0 .23812 -9.103 -7.217)" style="fill:#3c3c3b;fill-opacity:1"><rect style="fill:#3c3c3b;fill-opacity:1;stroke:none;stroke-width:.682792;stroke-dasharray:4.09676,4.09676;stop-color:#000" width="2.096" height="2.111" x="44.494" y="36.566" rx="1.035" ry="1.035"/><path style="opacity:1;fill:#3c3c3b;fill-opacity:1;stroke:none;stroke-width:1.66501;stroke-dasharray:9.99006,9.99006;stop-color:#000" d="M45.543 35.271a2.35 2.35 0 0 0-2.352 2.35 2.35 2.35 0 0 0 2.352 2.352 2.35 2.35 0 0 0 2.35-2.352 2.35 2.35 0 0 0-2.35-2.35zm0 .6a1.75 1.75 0 0 1 1.75 1.75 1.75 1.75 0 0 1-1.75 1.75 1.75 1.75 0 0 1-1.75-1.75 1.75 1.75 0 0 1 1.75-1.75z"/></g><path style="fill:#3c3c3b;fill-opacity:1;stroke:none;stroke-width:1.46894;stroke-dasharray:8.81365,8.81365;stop-color:#000" d="M30.847 36.236a1.589 1.589 0 0 0-1.59 1.589 1.589 1.589 0 0 0 1.59 1.587 1.589 1.589 0 0 0 1.587-1.587 1.589 1.589 0 0 0-1.587-1.59zm0 1.062a.527.527 0 0 1 .526.527.527.527 0 0 1-.526.526.527.527 0 0 1-.527-.526.527.527 0 0 1 .527-.527z" transform="matrix(.26458 0 0 .26458 -4.736 -9.387)"/><path class="cls-2" style="fill:#3c3c3b;fill-opacity:1;stroke-width:.697334" d="M27.134 36.236h1.062v3.177h-1.062zM25.019 36.236h1.062v3.177h-1.062zM22.895 36.236h1.062v3.177h-1.062z" transform="matrix(.26458 0 0 .26458 -4.736 -9.387)"/><path style="fill:#3c3c3b;fill-opacity:1;stroke:none;stroke-width:1.46894;stroke-dasharray:8.81365,8.81365;stop-color:#000" d="M26.608 44.714a1.589 1.589 0 0 0-1.59 1.589 1.589 1.589 0 0 0 1.59 1.587 1.589 1.589 0 0 0 1.587-1.587 1.589 1.589 0 0 0-1.587-1.59zm0 1.062a.527.527 0 0 1 .526.527.527.527 0 0 1-.526.526.527.527 0 0 1-.527-.526.527.527 0 0 1 .527-.527zM20.254 36.237a1.589 1.589 0 0 0-1.59 1.589 1.589 1.589 0 0 0 1.59 1.587 1.589 1.589 0 0 0 1.587-1.587 1.589 1.589 0 0 0-1.587-1.59zm0 1.061a.527.527 0 0 1 .526.528.527.527 0 0 1-.526.525.527.527 0 0 1-.527-.525.527.527 0 0 1 .527-.528zM28.723 40.475a1.589 1.589 0 0 0-1.59 1.589 1.589 1.589 0 0 0 1.59 1.587 1.589 1.589 0 0 0 1.587-1.587 1.589 1.589 0 0 0-1.587-1.59zm0 1.062a.527.527 0 0 1 .526.527.527.527 0 0 1-.526.526.527.527 0 0 1-.527-.526.527.527 0 0 1 .527-.527z" transform="matrix(.26458 0 0 .26458 -4.736 -9.387)"/><path class="cls-2" style="fill:#3c3c3b;fill-opacity:1;stroke-width:.697334" d="M31.373 40.475h1.062v3.177h-1.062zM31.373 44.714h1.062v3.177h-1.062zM29.258 44.714h1.062v3.177h-1.062z" transform="matrix(.26458 0 0 .26458 -4.736 -9.387)"/><path style="fill:#3c3c3b;fill-opacity:1;stroke:none;stroke-width:1.46894;stroke-dasharray:8.81365,8.81365;stop-color:#000" d="M22.378 44.714a1.589 1.589 0 0 0-1.59 1.589 1.589 1.589 0 0 0 1.59 1.587 1.589 1.589 0 0 0 1.587-1.587 1.589 1.589 0 0 0-1.587-1.59zm0 1.062a.527.527 0 0 1 .526.527.527.527 0 0 1-.526.526.527.527 0 0 1-.527-.526.527.527 0 0 1 .527-.527z" transform="matrix(.26458 0 0 .26458 -4.736 -9.387)"/><path class="cls-2" style="fill:#3c3c3b;fill-opacity:1;stroke-width:.697334" d="M18.665 44.714h1.062v3.177h-1.062z" transform="matrix(.26458 0 0 .26458 -4.736 -9.387)"/><path style="fill:#3c3c3b;fill-opacity:1;stroke:none;stroke-width:1.46894;stroke-dasharray:8.81365,8.81365;stop-color:#000" d="M30.847 48.953a1.589 1.589 0 0 0-1.59 1.589 1.589 1.589 0 0 0 1.59 1.587 1.589 1.589 0 0 0 1.587-1.587 1.589 1.589 0 0 0-1.587-1.59zm0 1.062a.527.527 0 0 1 .526.527.527.527 0 0 1-.526.526.527.527 0 0 1-.527-.526.527.527 0 0 1 .527-.527z" transform="matrix(.26458 0 0 .26458 -4.736 -9.387)"/><path class="cls-2" style="fill:#3c3c3b;fill-opacity:1;stroke-width:.697334" d="M27.134 48.953h1.062v3.177h-1.062zM25.019 48.953h1.062v3.177h-1.062zM22.904 48.953h1.062v3.177h-1.062z" transform="matrix(.26458 0 0 .26458 -4.736 -9.387)"/><path style="fill:#3c3c3b;fill-opacity:1;stroke:none;stroke-width:1.46894;stroke-dasharray:8.81365,8.81365;stop-color:#000" d="M20.254 48.953a1.589 1.589 0 0 0-1.59 1.589 1.589 1.589 0 0 0 1.59 1.587 1.589 1.589 0 0 0 1.587-1.587 1.589 1.589 0 0 0-1.587-1.59zm0 1.062a.527.527 0 0 1 .526.527.527.527 0 0 1-.526.526.527.527 0 0 1-.527-.526.527.527 0 0 1 .527-.527z" transform="matrix(.26458 0 0 .26458 -4.736 -9.387)"/><path class="cls-2" style="fill:#3c3c3b;fill-opacity:1;stroke-width:.697334" d="M18.665 53.192h1.062v3.177h-1.062z" transform="matrix(.26458 0 0 .26458 -4.736 -9.387)"/><path style="fill:#3c3c3b;fill-opacity:1;stroke:none;stroke-width:1.46894;stroke-dasharray:8.81365,8.81365;stop-color:#000" d="M26.608 53.192a1.589 1.589 0 0 0-1.59 1.589 1.589 1.589 0 0 0 1.59 1.587 1.589 1.589 0 0 0 1.587-1.587 1.589 1.589 0 0 0-1.587-1.59zm0 1.062a.527.527 0 0 1 .526.527.527.527 0 0 1-.526.526.527.527 0 0 1-.527-.526.527.527 0 0 1 .527-.527z" transform="matrix(.26458 0 0 .26458 -4.736 -9.387)"/><path class="cls-2" style="fill:#3c3c3b;fill-opacity:1;stroke-width:.697334" d="M20.789 53.192h1.062v3.177h-1.062zM22.904 53.192h1.062v3.177h-1.062zM29.258 53.192h1.062v3.177h-1.062zM31.373 53.192h1.062v3.177h-1.062zM18.665 57.431h1.062v3.177h-1.062z" transform="matrix(.26458 0 0 .26458 -4.736 -9.387)"/><path style="fill:#3c3c3b;fill-opacity:1;stroke:none;stroke-width:1.46894;stroke-dasharray:8.81365,8.81365;stop-color:#000" d="M22.378 57.43a1.589 1.589 0 0 0-1.59 1.59 1.589 1.589 0 0 0 1.59 1.587 1.589 1.589 0 0 0 1.587-1.587 1.589 1.589 0 0 0-1.587-1.59zm0 1.063a.527.527 0 0 1 .526.527.527.527 0 0 1-.526.526.527.527 0 0 1-.527-.526.527.527 0 0 1 .527-.527z" transform="matrix(.26458 0 0 .26458 -4.736 -9.387)"/><path class="cls-2" style="fill:#3c3c3b;fill-opacity:1;stroke-width:.697334" d="M20.789 40.475h1.062v3.177h-1.062zM18.665 40.475h1.062v3.177h-1.062zM29.258 57.431h1.062v3.177h-1.062zM27.143 57.431h1.062v3.177h-1.062zM25.028 57.431h1.062v3.177h-1.062z" transform="matrix(.26458 0 0 .26458 -4.736 -9.387)"/><path style="fill:#59bfc7;fill-opacity:1;stroke:none;stroke-width:1px;stroke-linecap:butt;stroke-linejoin:miter;stroke-opacity:1" d="M58.73 46.754 43.4 52.269v16.725a5.1 5.1 0 1 1-10.2 0V55.939l-15.3 5.504c.063 2.67 0 4.92 0 7.55a20.2 20.2 0 0 0 2.73 10.2A19.77 19.77 0 0 0 23 82.484a20.37 20.37 0 0 0 25.5 4.18 19.77 19.77 0 0 0 3.29-2.371 22.08 22.08 0 0 0 1.81-1.809 20.37 20.37 0 0 0 2.4-3.29 20.23 20.23 0 0 0 2.73-10.2v-22.24z" transform="matrix(.26458 0 0 .26458 -4.736 -9.387)"/></svg>