<svg version="1.1" id="Слой_1" xmlns="http://www.w3.org/2000/svg" x="0" y="0" style="enable-background:new 0 0 63.4 90" xml:space="preserve" width="63.4" height="90"><style>.st3{fill:#192542}</style><path style="fill:#d1af69" d="M6.9 16.4 48.8 0 16.5 20.1z"/><path d="m23.4 18.9 2.3-1.4c-.7.4-1.5.9-2.3 1.4z" style="fill:#1e2345"/><path d="M46.8 28c.1.2.2.4.3.5-.1-.2-.2-.3-.3-.5z" style="fill:none"/><path class="st3" d="M47.1 28.5c0 .1.1.1.1.2 0 0 0-.1-.1-.2zM22.1 24.4l1.2-.8c-2.1 1.1-4 2.6-5.5 4.4 1.2-1.3 2.6-2.5 4.3-3.6zM0 70.3h6.3c4 0 7 1.2 7 4.8 0 1.8-1 3.6-2.7 4.2v.1c2.2.5 3.8 2 3.8 4.6 0 3.9-3.2 5.7-7.6 5.7H0V70.3zm6 8c2.7 0 3.9-1.1 3.9-2.7 0-1.9-1.3-2.6-3.8-2.6H3.5v5.3H6zm.4 8.7c2.9 0 4.5-1 4.5-3.2 0-2-1.6-2.9-4.5-2.9H3.5V87h2.9zM18 70.3h11.9v2.9h-8.4v16.5H18V70.3zm19.3 2.9h-5.7v-2.9h14.8v2.9h-5.7v16.5h-3.5V73.2zm12.1 16.5.7-3c.3.1.7.2 1.4.2 1.1 0 1.8-.4 2.2-1.2l.4-.8-6.7-14.5H51l3 7.1 1.6 4.2h.1l1.5-4.2 2.7-7.1h3.5l-6.3 15.4C56 88.4 54.4 90 51.6 90c-1 0-1.6-.1-2.2-.3zM13.8 42.9c0-.2-.1-.4-.1-.6.1.1.1.4.1.6zM13.6 39.6v-.2.2c0 .9.1 1.7.2 2.5-.2-.9-.2-1.7-.2-2.5z"/><path d="M13.7 42.2V42v.2z" style="opacity:.58;fill:#192542"/><path class="st3" d="M18.4 30.1v5.6l26.9-18.4v-5.6L29.7 22.4zM45.3 20.7c.1.1 0 0 0 0z"/><path class="st3" d="m45.3 20.7-4.6 3.2c2.7 1.5 4.8 3.6 6.4 6.2-.1.2-.2.3-.3.5-.8 1-1.5 2-2.3 3.1-.1.1-.1.2-.1.3.3.8.7 1.6 1 2.4 0 .1.2.2.3.2l2.1.3 1.8.3c.1.8.2 1.6.2 2.4 0 1.4-.2 2.8-.5 4.1-1 .2-2 .3-3 .5h-.2c-.7.1-.8.3-.8.3l-.3.8-.6 1.7c-.1.1-.1.2 0 .3l2.1 2.7c-1.3 1.9-3 3.5-4.9 4.7l-.6-.4-.3-.2V23.9l-3.6 2.5-.1 30.5c-1.1.3-2.3.6-3.5.7V28.7l-3.6 2.5-.1 26.3c-1.2-.1-2.3-.4-3.5-.7V33.5L22.7 36v19.2c-4.6-2.6-7.9-7.2-8.9-12.5 0-.2-.1-.4-.1-.6v-.2c-.1-.8-.2-1.6-.2-2.4v-.2c0-4.4 1.7-8.4 4.3-11.5 1.5-1.8 3.4-3.3 5.5-4.4l10.3-7.1 11.7-8 3.6-8-25.7 17.6-4.3 3c-3.2 2.1-5.5 4.3-7.2 6.7-2.1 3.5-3.4 7.6-3.4 12.1C8.3 52.6 18.7 63 31.6 63 44.5 62.9 55 52.5 55 39.6c0-7.7-3.8-14.6-9.7-18.9z"/></svg>